<?xml version="1.0" encoding="UTF-8" standalone="no"?>
<!-- Created with Inkscape (http://www.inkscape.org/) -->

<svg
   width="509.65988"
   height="405.61685"
   viewBox="0 0 134.84751 107.31946"
   version="1.1"
   id="svg5"
   inkscape:version="1.1.1 (3bf5ae0d25, 2021-09-20)"
   sodipodi:docname="01-circle.svg"
   xmlns:inkscape="http://www.inkscape.org/namespaces/inkscape"
   xmlns:sodipodi="http://sodipodi.sourceforge.net/DTD/sodipodi-0.dtd"
   xmlns="http://www.w3.org/2000/svg"
   xmlns:svg="http://www.w3.org/2000/svg">
  <sodipodi:namedview
     id="namedview7"
     pagecolor="#ffffff"
     bordercolor="#666666"
     borderopacity="1.0"
     inkscape:pageshadow="2"
     inkscape:pageopacity="0.0"
     inkscape:pagecheckerboard="0"
     inkscape:document-units="mm"
     showgrid="false"
     units="px"
     inkscape:snap-global="false"
     inkscape:zoom="2.7907429"
     inkscape:cx="462.42167"
     inkscape:cy="137.77693"
     inkscape:window-width="1108"
     inkscape:window-height="1033"
     inkscape:window-x="794"
     inkscape:window-y="0"
     inkscape:window-maximized="0"
     inkscape:current-layer="layer1"
     fit-margin-top="0"
     fit-margin-left="0"
     fit-margin-right="0"
     fit-margin-bottom="0" />
  <defs
     id="defs2">
    <inkscape:path-effect
       effect="simplify"
       id="path-effect12363"
       is_visible="true"
       lpeversion="1"
       steps="1"
       threshold="0.5"
       smooth_angles="360"
       helper_size="0"
       simplify_individual_paths="false"
       simplify_just_coalesce="false" />
    <inkscape:path-effect
       effect="simplify"
       id="path-effect12359"
       is_visible="true"
       lpeversion="1"
       steps="1"
       threshold="0.5"
       smooth_angles="360"
       helper_size="0"
       simplify_individual_paths="false"
       simplify_just_coalesce="false" />
    <inkscape:path-effect
       effect="simplify"
       id="path-effect12355"
       is_visible="true"
       lpeversion="1"
       steps="1"
       threshold="0.5"
       smooth_angles="360"
       helper_size="0"
       simplify_individual_paths="false"
       simplify_just_coalesce="false" />
    <marker
       style="overflow:visible"
       id="Arrow1Lstart"
       refX="0.0"
       refY="0.0"
       orient="auto"
       inkscape:stockid="Arrow1Lstart"
       inkscape:isstock="true">
      <path
         transform="scale(0.8) translate(12.5,0)"
         style="fill-rule:evenodd;fill:context-stroke;stroke:context-stroke;stroke-width:1.0pt"
         d="M 0.0,0.0 L 5.0,-5.0 L -12.5,0.0 L 5.0,5.0 L 0.0,0.0 z "
         id="path11850" />
    </marker>
    <inkscape:path-effect
       effect="simplify"
       id="path-effect11848"
       is_visible="true"
       lpeversion="1"
       steps="1"
       threshold="0.5"
       smooth_angles="360"
       helper_size="0"
       simplify_individual_paths="false"
       simplify_just_coalesce="false" />
    <inkscape:path-effect
       effect="simplify"
       id="path-effect26697"
       is_visible="true"
       lpeversion="1"
       steps="1"
       threshold="0.5"
       smooth_angles="360"
       helper_size="0"
       simplify_individual_paths="false"
       simplify_just_coalesce="false" />
    <inkscape:path-effect
       effect="simplify"
       id="path-effect26693"
       is_visible="true"
       lpeversion="1"
       steps="1"
       threshold="0.5"
       smooth_angles="360"
       helper_size="0"
       simplify_individual_paths="false"
       simplify_just_coalesce="false" />
    <inkscape:path-effect
       effect="simplify"
       id="path-effect26571"
       is_visible="true"
       lpeversion="1"
       steps="1"
       threshold="0.5"
       smooth_angles="360"
       helper_size="0"
       simplify_individual_paths="false"
       simplify_just_coalesce="false" />
    <inkscape:path-effect
       effect="simplify"
       id="path-effect26453"
       is_visible="true"
       lpeversion="1"
       steps="1"
       threshold="0.5"
       smooth_angles="360"
       helper_size="0"
       simplify_individual_paths="false"
       simplify_just_coalesce="false" />
    <marker
       style="overflow:visible"
       id="Arrow1Lend"
       refX="0"
       refY="0"
       orient="auto"
       inkscape:stockid="Arrow1Lend"
       inkscape:isstock="true">
      <path
         transform="matrix(-0.8,0,0,-0.8,-10,0)"
         style="fill:context-stroke;fill-rule:evenodd;stroke:context-stroke;stroke-width:1pt"
         d="M 0,0 5,-5 -12.5,0 5,5 Z"
         id="path2003" />
    </marker>
    <marker
       style="overflow:visible"
       id="Arrow1Lend-7"
       refX="0"
       refY="0"
       orient="auto"
       inkscape:stockid="Arrow1Lend"
       inkscape:isstock="true">
      <path
         transform="matrix(-0.8,0,0,-0.8,-10,0)"
         style="fill:context-stroke;fill-rule:evenodd;stroke:context-stroke;stroke-width:1pt"
         d="M 0,0 5,-5 -12.5,0 5,5 Z"
         id="path2003-0" />
    </marker>
    <marker
       style="overflow:visible"
       id="Arrow1Lend-73"
       refX="0"
       refY="0"
       orient="auto"
       inkscape:stockid="Arrow1Lend"
       inkscape:isstock="true">
      <path
         transform="matrix(-0.8,0,0,-0.8,-10,0)"
         style="fill:context-stroke;fill-rule:evenodd;stroke:context-stroke;stroke-width:1pt"
         d="M 0,0 5,-5 -12.5,0 5,5 Z"
         id="path2003-3" />
    </marker>
    <marker
       style="overflow:visible"
       id="Arrow1Lend-1"
       refX="0"
       refY="0"
       orient="auto"
       inkscape:stockid="Arrow1Lend"
       inkscape:isstock="true">
      <path
         transform="matrix(-0.8,0,0,-0.8,-10,0)"
         style="fill:context-stroke;fill-rule:evenodd;stroke:context-stroke;stroke-width:1pt"
         d="M 0,0 5,-5 -12.5,0 5,5 Z"
         id="path2003-8" />
    </marker>
  </defs>
  <g
     inkscape:label="Layer 1"
     inkscape:groupmode="layer"
     id="layer1"
     transform="translate(-193.81838,-74.479995)">
    <path
       style="fill:none;stroke:#000000;stroke-width:0.206345px;stroke-linecap:butt;stroke-linejoin:miter;stroke-opacity:1;marker-end:url(#Arrow1Lend)"
       d="m 259.10125,181.75612 c -0.40875,-0.88318 0,-102.449761 0,-102.449761"
       id="path77" />
    <path
       style="fill:none;stroke:#000000;stroke-width:0.193509px;stroke-linecap:butt;stroke-linejoin:miter;stroke-opacity:1;marker-end:url(#Arrow1Lend)"
       d="m 193.81838,132.99536 c 129.01129,0 129.01129,0 129.01129,0"
       id="path79" />
    <path
       style="fill:none;stroke:#000000;stroke-width:0.194;stroke-linecap:butt;stroke-linejoin:miter;stroke-opacity:1;stroke-miterlimit:4;stroke-dasharray:none"
       d="m 267.22528,103.97716 c 48.68894,0 48.68894,0 48.68894,0"
       id="path79-6" />
    <text
       xml:space="preserve"
       style="font-style:normal;font-weight:normal;font-size:10.5833px;line-height:1.25;font-family:sans-serif;fill:#000000;fill-opacity:1;stroke:none;stroke-width:0.264583"
       x="261.5116"
       y="82.174591"
       id="text4844"><tspan
         sodipodi:role="line"
         id="tspan4842"
         style="stroke-width:0.264583"
         x="261.5116"
         y="82.174591">Im</tspan></text>
    <text
       xml:space="preserve"
       style="font-style:normal;font-weight:normal;font-size:10.5833px;line-height:1.25;font-family:sans-serif;fill:#000000;fill-opacity:1;stroke:none;stroke-width:0.264583"
       x="315.77783"
       y="143.84862"
       id="text6740"><tspan
         sodipodi:role="line"
         id="tspan6738"
         style="stroke-width:0.264583"
         x="315.77783"
         y="143.84862">Re</tspan></text>
    <text
       xml:space="preserve"
       style="font-style:normal;font-weight:normal;font-size:10.5833px;line-height:1.25;font-family:sans-serif;fill:#000000;fill-opacity:1;stroke:none;stroke-width:0.264583"
       x="228.46898"
       y="174.16737"
       id="text21852"><tspan
         sodipodi:role="line"
         id="tspan21850"
         style="stroke-width:0.264583"
         x="228.46898"
         y="174.16737" /></text>
    <path
       sodipodi:type="star"
       style="fill:#ff0000;fill-opacity:0;stroke:#000000;stroke-width:1.00157;stroke-miterlimit:4;stroke-dasharray:none"
       id="path11698"
       inkscape:flatsided="true"
       sodipodi:sides="100"
       sodipodi:cx="371.95572"
       sodipodi:cy="112.49887"
       sodipodi:r1="68.21788"
       sodipodi:r2="68.184219"
       sodipodi:arg1="0.45368116"
       sodipodi:arg2="0.48509709"
       inkscape:rounded="2.94"
       inkscape:randomized="0"
       d="m 433.27267,142.39722 c -5.52209,11.32495 4.22395,-7.16475 -1.99833,3.79112 -6.22229,10.95587 4.6655,-6.88538 -2.23243,3.65817 -6.89793,10.54355 5.08863,-6.57884 -2.45773,3.51078 -7.54635,10.08961 5.49168,-6.24635 -2.67331,3.34952 -8.165,9.59587 5.87305,-5.88919 -2.87837,3.17506 -8.75141,9.06425 6.23125,-5.5088 -3.07204,2.98805 -9.3033,8.49686 6.56485,-5.10666 -3.2536,2.78927 -9.81846,7.89593 6.87255,-4.68438 -3.42233,2.57947 -10.29487,7.26384 7.15313,-4.24361 -3.57753,2.35948 -10.73067,6.60309 7.40546,-3.78608 -3.71864,2.1302 -11.12409,5.91628 7.62859,-3.31362 -3.84504,1.8925 -11.47364,5.20611 7.82159,-2.82808 -3.9563,1.64733 -11.77788,4.4754 7.98374,-2.33138 -4.05192,1.39566 -12.03566,3.72703 8.11437,-1.82547 -4.13156,1.13848 -12.24593,2.96396 8.21298,-1.31236 -4.19489,0.87682 -12.40788,2.18918 8.27918,-0.79408 -4.24168,0.61169 -12.52085,1.40576 8.31271,-0.27266 -4.27171,0.34414 -12.58441,0.6168 8.31342,0.24984 -4.28489,0.0752 -12.59831,-0.1746 8.28133,0.77135 -4.28116,-0.19396 -12.56248,-0.96531 8.21656,1.28982 -4.26053,-0.46239 -12.47708,-1.75221 8.11935,1.8032 -4.22309,-0.729 -12.34244,-2.5322 7.9901,2.30946 -4.16899,-0.99273 -12.15908,-3.30219 7.82933,2.8066 -4.09842,-1.25255 -11.92775,-4.05914 7.63765,3.29267 -4.01169,-1.50741 -11.64933,-4.80009 7.41583,3.76574 -3.90912,-1.75634 -11.32495,-5.52208 7.16475,4.22396 -3.79112,-1.99833 -10.95587,-6.22228 6.88538,4.6655 -3.65817,-2.23243 -10.54355,-6.89793 6.57884,5.08863 -3.51078,-2.45772 -10.08961,-7.54636 6.24635,5.49167 -3.34952,-2.67332 -9.59587,-8.165 5.88919,5.87305 -3.17506,-2.87836 -9.06425,-8.75142 5.5088,6.23125 -2.98805,-3.07205 -8.49686,-9.30329 5.10666,6.56486 -2.78927,-3.2536 -7.89593,-9.81846 4.68438,6.87255 -2.57947,-3.42233 -7.26384,-10.29487 4.24361,7.15313 -2.35948,-3.57753 -6.60309,-10.73066 3.78608,7.40546 -2.1302,-3.71863 -5.91628,-11.1241 3.31362,7.62858 -1.8925,-3.84505 -5.20611,-11.47363 2.82808,7.82159 -1.64733,-3.95629 -4.4754,-11.77789 2.33138,7.98373 -1.39566,-4.05193 -3.72704,-12.03566 1.82547,8.11437 -1.13848,-4.13156 -2.96396,-12.24593 1.31236,8.21298 -0.87682,-4.19489 -2.18918,-12.40788 0.79408,8.27918 -0.61169,-4.24167 -1.40576,-12.52086 0.27266,8.3127 -0.34414,-4.27171 -0.6168,-12.58442 -0.24984,8.31341 -0.0752,-4.2849 0.1746,-12.598305 -0.77135,8.28133 0.19396,-4.28115 0.96531,-12.562491 -1.28982,8.21655 0.46239,-4.26054 1.75221,-12.477082 -1.8032,8.11935 0.729,-4.223089 2.5322,-12.342442 -2.30946,7.990109 0.99273,-4.168984 3.30219,-12.159089 -2.8066,7.829323 1.25255,-4.098424 4.05914,-11.927749 -3.29267,7.637649 1.50741,-4.011688 4.80009,-11.649337 -3.76574,7.415829 1.75634,-3.90912 5.52208,-11.32495 -4.22396,7.164742 1.99833,-3.791126 6.22228,-10.955868 -4.6655,6.88538 2.23243,-3.658168 6.89793,-10.543549 -5.08863,6.578844 2.45772,-3.510775 7.54636,-10.089618 -5.49167,6.246345 2.67332,-3.349525 8.165,-9.595869 -5.87305,5.889194 2.87836,-3.175056 8.75142,-9.06425 -6.23125,5.5088 3.07205,-2.988057 9.30329,-8.496858 -6.56486,5.106666 3.2536,-2.789266 9.81846,-7.895933 -6.87255,4.684379 3.42233,-2.579467 10.29487,-7.263845 -7.15313,4.243605 3.57753,-2.359486 10.73066,-6.603092 -7.40546,3.786082 3.71863,-2.130196 11.1241,-5.916278 -7.62858,3.313618 3.84505,-1.892497 11.47363,-5.206116 -7.82159,2.828077 3.95629,-1.647331 11.77789,-4.475407 -7.98373,2.331375 4.05193,-1.395662 12.03566,-3.727036 -8.11437,1.825471 4.13156,-1.138486 12.24593,-2.963956 -8.21298,1.312364 4.19489,-0.876816 12.40788,-2.189179 -8.27918,0.794076 4.24167,-0.611686 12.52086,-1.405763 -8.3127,0.272655 4.27171,-0.344143 12.58442,-0.616798 -8.31341,-0.249842 4.28489,-0.07524 12.59831,0.174601 -8.28132,-0.771352 4.28116,0.193958 12.56249,0.965311 -8.21655,-1.289819 4.26054,0.462392 12.47708,1.752211 -8.11935,-1.803196 4.22309,0.729 12.34244,2.532197 -7.99011,-2.309455 4.16898,0.992732 12.15909,3.302188 -7.82932,-2.806601 4.09843,1.252546 11.92775,4.059147 -7.63765,-3.29267 4.01168,1.507416 11.64934,4.800087 -7.41582,-3.765745 3.90913,1.756338 11.32495,5.522083 -7.16475,-4.223958 3.79112,1.998328 10.95587,6.222286 -6.88538,-4.665501 3.65817,2.232431 10.54355,6.897932 -6.57885,-5.088631 3.51077,2.457724 10.08962,7.546356 -6.24634,-5.491679 3.34953,2.673318 9.59587,8.164997 -5.88919,-5.873054 3.17505,2.878361 9.06425,8.751415 -5.5088,-6.23125 2.98806,3.072045 8.49686,9.303295 -5.10666,-6.564855 2.78927,3.253604 7.89593,9.81846 -4.68438,-6.87255 2.57946,3.422324 7.26385,10.294874 -4.2436,-7.153124 2.35949,3.577537 6.60309,10.73066 -3.78608,-7.405467 2.1302,3.71863 5.91627,11.124098 -3.31362,-7.628584 1.89249,3.845049 5.20612,11.473633 -2.82807,-7.821595 1.64733,3.956292 4.47541,11.777884 -2.33137,-7.983737 1.39567,4.051922 3.72703,12.035662 -1.82547,-8.114371 1.13848,4.131561 2.96396,12.245931 -1.31236,-8.212981 0.87682,4.194891 2.18918,12.40788 -0.79408,-8.279175 0.61169,4.24168 1.40576,12.52085 -0.27266,-8.312706 0.34414,4.27171 0.6168,12.58441 0.24984,-8.31342 0.0752,4.28489 -0.1746,12.59831 0.77135,-8.28133 -0.19396,4.28116 -0.96531,12.56248 1.28982,-8.21656 -0.46239,4.26053 -1.75221,12.47708 1.80319,-8.11935 -0.729,4.22309 -2.5322,12.34244 2.30945,-7.9901 -0.99273,4.16898 -3.30219,12.15909 2.8066,-7.82932 -1.25255,4.09843 -4.05915,11.92775 3.29267,-7.63765 -1.50742,4.01169 -4.80008,11.64933 3.76575,-7.41583 -1.75633,3.90912 z"
       transform="matrix(0.26458333,0,0,0.26458333,193.81838,74.479995)"
       inkscape:transform-center-x="1.2398524e-06" />
    <path
       style="fill:none;stroke:#000000;stroke-width:0.264583px;stroke-linecap:butt;stroke-linejoin:miter;stroke-opacity:1;marker-start:url(#Arrow1Lstart)"
       d="m 292.23166,104.11124 c -11.12848,9.60893 -22.25695,19.21785 -33.38543,28.82678"
       id="path11846"
       inkscape:path-effect="#path-effect11848"
       inkscape:original-d="m 292.23166,104.11124 -33.38543,28.82678" />
    <path
       style="fill:none;stroke:#000000;stroke-width:0.264583px;stroke-linecap:butt;stroke-linejoin:miter;stroke-opacity:1;marker-end:url(#Arrow1Lend)"
       d="m 292.49982,103.84309 3.6201,-17.430149"
       id="path12169" />
    <path
       style="fill:none;stroke:#000000;stroke-width:0.264583px;stroke-linecap:butt;stroke-linejoin:miter;stroke-opacity:1"
       d="m 298.39104,104.15474 c 0.13884,-2.78157 -2.4585,-4.644776 -4.92999,-5.024797"
       id="path12361"
       inkscape:path-effect="#path-effect12363"
       inkscape:original-d="m 298.39104,104.15474 c -0.0231,-3.07241 -2.41114,-4.521028 -4.92999,-5.024797" />
    <text
       xml:space="preserve"
       style="font-size:10.5839px;line-height:1.25;font-family:sans-serif;word-spacing:0px;stroke-width:0.264599"
       x="297.53775"
       y="100.5524"
       id="text15029"><tspan
         sodipodi:role="line"
         style="stroke-width:0.264599"
         x="297.53775"
         y="100.5524"
         id="tspan16267">α</tspan></text>
    <text
       xml:space="preserve"
       style="font-size:10.5833px;line-height:1.25;font-family:sans-serif;word-spacing:0px;stroke-width:0.264583"
       x="287.29855"
       y="94.294762"
       id="text26975"><tspan
         sodipodi:role="line"
         id="tspan26973"
         style="stroke-width:0.264583"
         x="287.29855"
         y="94.294762">ρ</tspan><tspan
         sodipodi:role="line"
         style="stroke-width:0.264583"
         x="287.29855"
         y="107.52389"
         id="tspan27189" /></text>
    <text
       xml:space="preserve"
       style="font-size:10.5833px;line-height:1.25;font-family:sans-serif;word-spacing:0px;stroke-width:0.264583"
       x="292.03894"
       y="111.36011"
       id="text29955"><tspan
         sodipodi:role="line"
         style="stroke-width:0.264583"
         x="292.03894"
         y="111.36011"
         id="tspan30081">c</tspan></text>
  </g>
</svg>
