<?xml version="1.0" encoding="UTF-8" standalone="no"?>
<!-- Created with Inkscape (http://www.inkscape.org/) -->

<svg
   width="302.22736"
   height="320.37048"
   viewBox="0 0 79.964322 84.764692"
   version="1.1"
   id="svg5"
   inkscape:version="1.1.1 (3bf5ae0d25, 2021-09-20)"
   sodipodi:docname="02-parallelepiped.svg"
   xmlns:inkscape="http://www.inkscape.org/namespaces/inkscape"
   xmlns:sodipodi="http://sodipodi.sourceforge.net/DTD/sodipodi-0.dtd"
   xmlns="http://www.w3.org/2000/svg"
   xmlns:svg="http://www.w3.org/2000/svg"
   xmlns:ns1="http://www.iki.fi/pav/software/textext/">
  <sodipodi:namedview
     id="namedview7"
     pagecolor="#ffffff"
     bordercolor="#666666"
     borderopacity="1.0"
     inkscape:pageshadow="2"
     inkscape:pageopacity="0.0"
     inkscape:pagecheckerboard="0"
     inkscape:document-units="mm"
     showgrid="false"
     units="px"
     inkscape:snap-global="false"
     inkscape:zoom="1.9733532"
     inkscape:cx="-29.644972"
     inkscape:cy="162.92066"
     inkscape:window-width="2560"
     inkscape:window-height="1377"
     inkscape:window-x="-8"
     inkscape:window-y="-8"
     inkscape:window-maximized="1"
     inkscape:current-layer="layer1"
     fit-margin-top="0"
     fit-margin-left="0"
     fit-margin-right="0"
     fit-margin-bottom="0" />
  <defs
     id="defs2">
    <inkscape:path-effect
       effect="simplify"
       id="path-effect26697"
       is_visible="true"
       lpeversion="1"
       steps="1"
       threshold="0.5"
       smooth_angles="360"
       helper_size="0"
       simplify_individual_paths="false"
       simplify_just_coalesce="false" />
    <inkscape:path-effect
       effect="simplify"
       id="path-effect26693"
       is_visible="true"
       lpeversion="1"
       steps="1"
       threshold="0.5"
       smooth_angles="360"
       helper_size="0"
       simplify_individual_paths="false"
       simplify_just_coalesce="false" />
    <inkscape:path-effect
       effect="simplify"
       id="path-effect26571"
       is_visible="true"
       lpeversion="1"
       steps="1"
       threshold="0.5"
       smooth_angles="360"
       helper_size="0"
       simplify_individual_paths="false"
       simplify_just_coalesce="false" />
    <inkscape:path-effect
       effect="simplify"
       id="path-effect26453"
       is_visible="true"
       lpeversion="1"
       steps="1"
       threshold="0.5"
       smooth_angles="360"
       helper_size="0"
       simplify_individual_paths="false"
       simplify_just_coalesce="false" />
    <marker
       style="overflow:visible"
       id="Arrow1Lend"
       refX="0"
       refY="0"
       orient="auto"
       inkscape:stockid="Arrow1Lend"
       inkscape:isstock="true">
      <path
         transform="matrix(-0.8,0,0,-0.8,-10,0)"
         style="fill:context-stroke;fill-rule:evenodd;stroke:context-stroke;stroke-width:1pt"
         d="M 0,0 5,-5 -12.5,0 5,5 Z"
         id="path2003" />
    </marker>
    <marker
       style="overflow:visible"
       id="Arrow1Lend-7"
       refX="0"
       refY="0"
       orient="auto"
       inkscape:stockid="Arrow1Lend"
       inkscape:isstock="true">
      <path
         transform="matrix(-0.8,0,0,-0.8,-10,0)"
         style="fill:context-stroke;fill-rule:evenodd;stroke:context-stroke;stroke-width:1pt"
         d="M 0,0 5,-5 -12.5,0 5,5 Z"
         id="path2003-0" />
    </marker>
    <marker
       style="overflow:visible"
       id="Arrow1Lend-73"
       refX="0"
       refY="0"
       orient="auto"
       inkscape:stockid="Arrow1Lend"
       inkscape:isstock="true">
      <path
         transform="matrix(-0.8,0,0,-0.8,-10,0)"
         style="fill:context-stroke;fill-rule:evenodd;stroke:context-stroke;stroke-width:1pt"
         d="M 0,0 5,-5 -12.5,0 5,5 Z"
         id="path2003-3" />
    </marker>
    <g
       id="id-308f56d2-3a39-4b4e-b33a-42bf6a006e43-9">
      <symbol
         overflow="visible"
         id="id-c2c91b5f-048e-4183-b65f-2e927f1e5304-5">
        <path
           style="stroke:none;stroke-width:0"
           d=""
           id="id-6d2283ce-fde5-46d4-800a-8fd75fe047cd-3" />
      </symbol>
      <symbol
         overflow="visible"
         id="id-e44be870-0a87-4488-99de-0e35c25ebaa5-9">
        <path
           style="stroke:none;stroke-width:0"
           d="m 1.71875,-3.765625 v -3.15625 L 0.28125,-6.8125 V -6.5 c 0.703125,0 0.78125,0.0625 0.78125,0.5625 V 0 h 0.25 c 0,-0.015625 0.078125,-0.15625 0.359375,-0.625 0.140625,0.234375 0.5625,0.734375 1.296875,0.734375 1.1875,0 2.21875,-0.984375 2.21875,-2.265625 0,-1.265625 -0.96875,-2.25 -2.109375,-2.25 -0.78125,0 -1.203125,0.46875 -1.359375,0.640625 z m 0.03125,2.625 V -3.1875 c 0,-0.1875 0,-0.203125 0.109375,-0.359375 C 2.25,-4.109375 2.796875,-4.1875 3.03125,-4.1875 c 0.453125,0 0.8125,0.265625 1.046875,0.640625 0.265625,0.40625 0.28125,0.96875 0.28125,1.390625 0,0.359375 -0.015625,0.953125 -0.296875,1.40625 -0.21875,0.3125 -0.59375,0.640625 -1.125,0.640625 -0.453125,0 -0.8125,-0.234375 -1.046875,-0.609375 C 1.75,-0.921875 1.75,-0.953125 1.75,-1.140625 Z m 0,0"
           id="id-c2519c6f-b284-4372-8df6-e7a5b889df95-0" />
      </symbol>
    </g>
    <marker
       style="overflow:visible"
       id="Arrow1Lend-2"
       refX="0"
       refY="0"
       orient="auto"
       inkscape:stockid="Arrow1Lend"
       inkscape:isstock="true">
      <path
         transform="matrix(-0.8,0,0,-0.8,-10,0)"
         style="fill:context-stroke;fill-rule:evenodd;stroke:context-stroke;stroke-width:1pt"
         d="M 0,0 5,-5 -12.5,0 5,5 Z"
         id="path2003-9" />
    </marker>
    <marker
       style="overflow:visible"
       id="Arrow1Lend-0"
       refX="0"
       refY="0"
       orient="auto"
       inkscape:stockid="Arrow1Lend"
       inkscape:isstock="true">
      <path
         transform="matrix(-0.8,0,0,-0.8,-10,0)"
         style="fill:context-stroke;fill-rule:evenodd;stroke:context-stroke;stroke-width:1pt"
         d="M 0,0 5,-5 -12.5,0 5,5 Z"
         id="path2003-1" />
    </marker>
    <marker
       style="overflow:visible"
       id="Arrow1Lend-6"
       refX="0"
       refY="0"
       orient="auto"
       inkscape:stockid="Arrow1Lend"
       inkscape:isstock="true">
      <path
         transform="matrix(-0.8,0,0,-0.8,-10,0)"
         style="fill:context-stroke;fill-rule:evenodd;stroke:context-stroke;stroke-width:1pt"
         d="M 0,0 5,-5 -12.5,0 5,5 Z"
         id="path2003-6" />
    </marker>
    <marker
       style="overflow:visible"
       id="Arrow1Lend-2-4"
       refX="0"
       refY="0"
       orient="auto"
       inkscape:stockid="Arrow1Lend"
       inkscape:isstock="true">
      <path
         transform="matrix(-0.8,0,0,-0.8,-10,0)"
         style="fill:context-stroke;fill-rule:evenodd;stroke:context-stroke;stroke-width:1pt"
         d="M 0,0 5,-5 -12.5,0 5,5 Z"
         id="path2003-9-5" />
    </marker>
    <marker
       style="overflow:visible"
       id="Arrow1Lend-2-1"
       refX="0"
       refY="0"
       orient="auto"
       inkscape:stockid="Arrow1Lend"
       inkscape:isstock="true">
      <path
         transform="matrix(-0.8,0,0,-0.8,-10,0)"
         style="fill:context-stroke;fill-rule:evenodd;stroke:context-stroke;stroke-width:1pt"
         d="M 0,0 5,-5 -12.5,0 5,5 Z"
         id="path2003-9-1" />
    </marker>
  </defs>
  <g
     inkscape:label="Layer 1"
     inkscape:groupmode="layer"
     id="layer1"
     transform="translate(-267.03328,-64.154959)">
    <text
       xml:space="preserve"
       style="font-style:normal;font-weight:normal;font-size:10.5833px;line-height:1.25;font-family:sans-serif;fill:#000000;fill-opacity:1;stroke:none;stroke-width:0.264583"
       x="253.80972"
       y="189.85449"
       id="text21852"><tspan
         sodipodi:role="line"
         id="tspan21850"
         style="stroke-width:0.264583"
         x="253.80972"
         y="189.85449" /></text>
    <path
       style="fill:none;stroke:#000000;stroke-width:0.265;stroke-linecap:butt;stroke-linejoin:miter;stroke-miterlimit:4;stroke-dasharray:none;stroke-opacity:1;marker-end:url(#Arrow1Lend)"
       d="m 284.0529,148.62515 c 41.02788,-19.03908 41.02788,-19.03908 41.02788,-19.03908"
       id="path1366" />
    <path
       style="fill:none;stroke:#000000;stroke-width:0.265;stroke-linecap:butt;stroke-linejoin:miter;stroke-miterlimit:4;stroke-dasharray:1.06, 2.12;stroke-dashoffset:0;stroke-opacity:1"
       d="M 286.4683,113.90642 C 327.49618,94.867343 327.49618,94.867343 327.49618,94.867343"
       id="path1366-5" />
    <path
       style="fill:none;stroke:#000000;stroke-width:0.265;stroke-linecap:butt;stroke-linejoin:miter;stroke-miterlimit:4;stroke-dasharray:1.59, 1.59;stroke-dashoffset:0;stroke-opacity:1"
       d="M 303.4726,118.31411 C 344.50048,99.275036 344.50048,99.275036 344.50048,99.275036"
       id="path1366-6" />
    <path
       style="fill:none;stroke:#000000;stroke-width:0.284036px;stroke-linecap:butt;stroke-linejoin:miter;stroke-opacity:1;marker-end:url(#Arrow1Lend)"
       d="m 284.28276,148.49616 c 19.12616,-29.99399 19.12616,-29.99399 19.12616,-29.99399"
       id="path1368" />
    <path
       style="fill:none;stroke:#000000;stroke-width:0.284036;stroke-linecap:butt;stroke-linejoin:miter;stroke-miterlimit:4;stroke-dasharray:1.13614, 1.13614;stroke-dashoffset:0;stroke-opacity:1"
       d="M 325.19974,129.56895 C 344.3259,99.574962 344.3259,99.574962 344.3259,99.574962"
       id="path1368-2" />
    <path
       style="fill:none;stroke:#000000;stroke-width:0.265;stroke-linecap:butt;stroke-linejoin:miter;stroke-miterlimit:4;stroke-dasharray:1.59, 1.59;stroke-dashoffset:0;stroke-opacity:1"
       d="m 305.91394,83.314218 c 41.02788,-19.03907 41.02788,-19.03907 41.02788,-19.03907"
       id="path1366-6-7" />
    <path
       style="fill:none;stroke:#000000;stroke-width:0.284036;stroke-linecap:butt;stroke-linejoin:miter;stroke-miterlimit:4;stroke-dasharray:1.13614, 1.13614;stroke-dashoffset:0;stroke-opacity:1"
       d="M 327.64108,94.569058 C 346.76724,64.575074 346.76724,64.575074 346.76724,64.575074"
       id="path1368-2-16" />
    <path
       style="fill:none;stroke:#000000;stroke-width:0.284036;stroke-linecap:butt;stroke-linejoin:miter;stroke-miterlimit:4;stroke-dasharray:1.13614, 1.13614;stroke-dashoffset:0;stroke-opacity:1"
       d="M 286.48896,113.93439 C 305.61512,83.940414 305.61512,83.940414 305.61512,83.940414"
       id="path1368-2-1" />
    <g
       transform="matrix(0.68340606,0,0,0.68340606,297.67145,128.58806)"
       ns1:version="1.6.0"
       ns1:texconverter="pdflatex"
       ns1:pdfconverter="inkscape"
       ns1:text="\\underline{b}"
       ns1:preamble="C:\Users\rag\AppData\Roaming\inkscape\extensions\textext\default_packages.tex"
       ns1:scale="1.0"
       ns1:alignment="middle center"
       ns1:stroke-to-path="0"
       ns1:inkscapeversion="1.1.1"
       ns1:jacobian_sqrt="0.352778"
       id="g755">
      <defs
         id="id-f1729612-4e48-4e2f-913f-2c5bb6a4edb0">
        <g
           id="id-308f56d2-3a39-4b4e-b33a-42bf6a006e43">
          <symbol
             overflow="visible"
             id="id-c2c91b5f-048e-4183-b65f-2e927f1e5304">
            <path
               style="stroke:none;stroke-width:0"
               d=""
               id="id-6d2283ce-fde5-46d4-800a-8fd75fe047cd" />
          </symbol>
          <symbol
             overflow="visible"
             id="id-e44be870-0a87-4488-99de-0e35c25ebaa5">
            <path
               style="stroke:none;stroke-width:0"
               d="m 1.71875,-3.765625 v -3.15625 L 0.28125,-6.8125 V -6.5 c 0.703125,0 0.78125,0.0625 0.78125,0.5625 V 0 h 0.25 c 0,-0.015625 0.078125,-0.15625 0.359375,-0.625 0.140625,0.234375 0.5625,0.734375 1.296875,0.734375 1.1875,0 2.21875,-0.984375 2.21875,-2.265625 0,-1.265625 -0.96875,-2.25 -2.109375,-2.25 -0.78125,0 -1.203125,0.46875 -1.359375,0.640625 z m 0.03125,2.625 V -3.1875 c 0,-0.1875 0,-0.203125 0.109375,-0.359375 C 2.25,-4.109375 2.796875,-4.1875 3.03125,-4.1875 c 0.453125,0 0.8125,0.265625 1.046875,0.640625 0.265625,0.40625 0.28125,0.96875 0.28125,1.390625 0,0.359375 -0.015625,0.953125 -0.296875,1.40625 -0.21875,0.3125 -0.59375,0.640625 -1.125,0.640625 -0.453125,0 -0.8125,-0.234375 -1.046875,-0.609375 C 1.75,-0.921875 1.75,-0.953125 1.75,-1.140625 Z m 0,0"
               id="id-c2519c6f-b284-4372-8df6-e7a5b889df95" />
          </symbol>
        </g>
      </defs>
      <g
         id="id-4d3b4fd0-c306-4d3f-aa55-332511b74316"
         transform="translate(-148.711,-127.843)">
        <g
           style="fill:#000000;fill-opacity:1"
           id="id-1d5d61a9-7650-47e4-8d0d-bac1e968851e">
          <g
             transform="translate(148.712,134.765)"
             id="g750">
            <path
               style="stroke:none;stroke-width:0"
               d="m 1.71875,-3.765625 v -3.15625 L 0.28125,-6.8125 V -6.5 c 0.703125,0 0.78125,0.0625 0.78125,0.5625 V 0 h 0.25 c 0,-0.015625 0.078125,-0.15625 0.359375,-0.625 0.140625,0.234375 0.5625,0.734375 1.296875,0.734375 1.1875,0 2.21875,-0.984375 2.21875,-2.265625 0,-1.265625 -0.96875,-2.25 -2.109375,-2.25 -0.78125,0 -1.203125,0.46875 -1.359375,0.640625 z m 0.03125,2.625 V -3.1875 c 0,-0.1875 0,-0.203125 0.109375,-0.359375 C 2.25,-4.109375 2.796875,-4.1875 3.03125,-4.1875 c 0.453125,0 0.8125,0.265625 1.046875,0.640625 0.265625,0.40625 0.28125,0.96875 0.28125,1.390625 0,0.359375 -0.015625,0.953125 -0.296875,1.40625 -0.21875,0.3125 -0.59375,0.640625 -1.125,0.640625 -0.453125,0 -0.8125,-0.234375 -1.046875,-0.609375 C 1.75,-0.921875 1.75,-0.953125 1.75,-1.140625 Z m 0,0"
               id="id-17347277-f781-45b2-aeeb-b9f3c9acca76" />
          </g>
        </g>
        <path
           style="fill:none;stroke:#000000;stroke-width:0.398;stroke-linecap:butt;stroke-linejoin:miter;stroke-miterlimit:10;stroke-opacity:1"
           d="M -0.0010625,-0.00115625 H 5.534094"
           transform="matrix(1,0,0,-1,148.712,136.159)"
           id="id-3d5ab532-0424-49e7-ab8e-76d8a7609efe" />
      </g>
    </g>
    <g
       transform="matrix(0.83929664,0,0,0.83929664,302.28009,141.49024)"
       ns1:version="1.6.0"
       ns1:texconverter="pdflatex"
       ns1:pdfconverter="inkscape"
       ns1:text="\\underline{a}"
       ns1:preamble="C:\Users\rag\AppData\Roaming\inkscape\extensions\textext\default_packages.tex"
       ns1:scale="1.0"
       ns1:alignment="middle center"
       ns1:stroke-to-path="0"
       ns1:inkscapeversion="1.1.1"
       ns1:jacobian_sqrt="0.352778"
       id="g1827">
      <defs
         id="id-651223c0-4448-4d6d-8ef7-26feee2e3b65">
        <g
           id="id-9fb86d8b-7c05-4458-bed3-13a7253fa3d1">
          <symbol
             overflow="visible"
             id="id-e25b100c-139f-4587-bd10-b51afcaf1bb0">
            <path
               style="stroke:none;stroke-width:0"
               d=""
               id="id-43ffa94b-b0ad-40ec-b963-b7bf85a9bf4a" />
          </symbol>
          <symbol
             overflow="visible"
             id="id-1c74e203-e429-4b57-a66e-83e9c917d2ed">
            <path
               style="stroke:none;stroke-width:0"
               d="m 3.3125,-0.75 c 0.046875,0.390625 0.3125,0.8125 0.78125,0.8125 0.21875,0 0.828125,-0.140625 0.828125,-0.953125 v -0.5625 h -0.25 v 0.5625 c 0,0.578125 -0.25,0.640625 -0.359375,0.640625 -0.328125,0 -0.375,-0.453125 -0.375,-0.5 v -1.984375 c 0,-0.421875 0,-0.8125 -0.359375,-1.1875 C 3.1875,-4.3125 2.6875,-4.46875 2.21875,-4.46875 c -0.828125,0 -1.515625,0.46875 -1.515625,1.125 0,0.296875 0.203125,0.46875 0.46875,0.46875 0.28125,0 0.453125,-0.203125 0.453125,-0.453125 0,-0.125 -0.046875,-0.453125 -0.515625,-0.453125 C 1.390625,-4.140625 1.875,-4.25 2.1875,-4.25 c 0.5,0 1.0625,0.390625 1.0625,1.28125 v 0.359375 c -0.515625,0.03125 -1.203125,0.0625 -1.828125,0.359375 -0.75,0.34375 -1,0.859375 -1,1.296875 0,0.8125 0.96875,1.0625 1.59375,1.0625 0.65625,0 1.109375,-0.40625 1.296875,-0.859375 z M 3.25,-2.390625 v 1 c 0,0.9375 -0.71875,1.28125 -1.171875,1.28125 -0.484375,0 -0.890625,-0.34375 -0.890625,-0.84375 0,-0.546875 0.421875,-1.375 2.0625,-1.4375 z m 0,0"
               id="id-d0642a2a-1852-462f-83c7-f35d2c020ffd" />
          </symbol>
        </g>
      </defs>
      <g
         id="id-6b95ec2a-8984-41f5-b0a3-3652500e83b1"
         transform="translate(-148.711,-130.296)">
        <g
           style="fill:#000000;fill-opacity:1"
           id="id-f846ce50-4231-4e5e-86d7-76a1795fdec5">
          <g
             transform="translate(148.712,134.765)"
             id="g1822">
            <path
               style="stroke:none;stroke-width:0"
               d="m 3.3125,-0.75 c 0.046875,0.390625 0.3125,0.8125 0.78125,0.8125 0.21875,0 0.828125,-0.140625 0.828125,-0.953125 v -0.5625 h -0.25 v 0.5625 c 0,0.578125 -0.25,0.640625 -0.359375,0.640625 -0.328125,0 -0.375,-0.453125 -0.375,-0.5 v -1.984375 c 0,-0.421875 0,-0.8125 -0.359375,-1.1875 C 3.1875,-4.3125 2.6875,-4.46875 2.21875,-4.46875 c -0.828125,0 -1.515625,0.46875 -1.515625,1.125 0,0.296875 0.203125,0.46875 0.46875,0.46875 0.28125,0 0.453125,-0.203125 0.453125,-0.453125 0,-0.125 -0.046875,-0.453125 -0.515625,-0.453125 C 1.390625,-4.140625 1.875,-4.25 2.1875,-4.25 c 0.5,0 1.0625,0.390625 1.0625,1.28125 v 0.359375 c -0.515625,0.03125 -1.203125,0.0625 -1.828125,0.359375 -0.75,0.34375 -1,0.859375 -1,1.296875 0,0.8125 0.96875,1.0625 1.59375,1.0625 0.65625,0 1.109375,-0.40625 1.296875,-0.859375 z M 3.25,-2.390625 v 1 c 0,0.9375 -0.71875,1.28125 -1.171875,1.28125 -0.484375,0 -0.890625,-0.34375 -0.890625,-0.84375 0,-0.546875 0.421875,-1.375 2.0625,-1.4375 z m 0,0"
               id="id-86b40edf-990a-4734-a4bf-7ecdb87f2807" />
          </g>
        </g>
        <path
           style="fill:none;stroke:#000000;stroke-width:0.398;stroke-linecap:butt;stroke-linejoin:miter;stroke-miterlimit:10;stroke-opacity:1"
           d="M -0.0010625,-0.00115625 H 4.979406"
           transform="matrix(1,0,0,-1,148.712,136.159)"
           id="id-0caacf8c-efa1-4cbb-b2b8-af0423a91162" />
      </g>
    </g>
    <path
       style="fill:none;stroke:#000000;stroke-width:0.264583px;stroke-linecap:butt;stroke-linejoin:miter;stroke-opacity:1"
       d="m 288.12499,142.62425 c 1.41404,0.37065 2.08773,1.71408 2.4134,3.01676"
       id="path1420" />
    <g
       transform="matrix(0.705556,0,0,0.705556,291.46824,138.26185)"
       ns1:version="1.6.0"
       ns1:texconverter="pdflatex"
       ns1:pdfconverter="inkscape"
       ns1:text="$\\theta$"
       ns1:preamble="C:\Users\rag\AppData\Roaming\inkscape\extensions\textext\default_packages.tex"
       ns1:scale="2.0"
       ns1:alignment="middle center"
       ns1:stroke-to-path="0"
       ns1:inkscapeversion="1.1.1"
       ns1:jacobian_sqrt="0.705556"
       id="g1583">
      <defs
         id="id-c341057d-0def-4703-91c0-7a0250ed6945">
        <g
           id="id-dc76c0cf-04c5-4b0c-86f5-887578121b2a">
          <symbol
             overflow="visible"
             id="id-94a65cc7-0b78-41c6-81f5-60060396db1c">
            <path
               style="stroke:none;stroke-width:0"
               d=""
               id="id-3d22729b-ad5d-44b8-8ff8-a384bbacc3b8" />
          </symbol>
          <symbol
             overflow="visible"
             id="id-595d94a2-4da1-4f95-aad8-641e628bcc74">
            <path
               style="stroke:none;stroke-width:0"
               d="m 4.53125,-4.984375 c 0,-0.65625 -0.171875,-2.046875 -1.1875,-2.046875 -1.390625,0 -2.921875,2.8125 -2.921875,5.09375 0,0.9375 0.28125,2.046875 1.1875,2.046875 1.40625,0 2.921875,-2.859375 2.921875,-5.09375 z M 1.46875,-3.625 C 1.640625,-4.25 1.84375,-5.046875 2.25,-5.765625 2.515625,-6.25 2.875,-6.8125 3.328125,-6.8125 c 0.484375,0 0.546875,0.640625 0.546875,1.203125 0,0.5 -0.078125,1 -0.3125,1.984375 z m 2,0.328125 C 3.359375,-2.84375 3.15625,-2 2.765625,-1.28125 c -0.34375,0.6875 -0.71875,1.171875 -1.15625,1.171875 -0.328125,0 -0.53125,-0.296875 -0.53125,-1.21875 0,-0.421875 0.0625,-1 0.3125,-1.96875 z m 0,0"
               id="id-27a75f8e-36f2-4123-a13b-a0d8afa5ea23" />
          </symbol>
        </g>
      </defs>
      <g
         id="id-8e4aeb7c-4fa1-458a-a33d-2ce21555e6a9"
         transform="translate(-149.134,-127.734)">
        <g
           style="fill:#000000;fill-opacity:1"
           id="id-d376cb41-18c2-445b-bd23-92eb5f4511c5">
          <g
             transform="translate(148.712,134.765)"
             id="g1579">
            <path
               style="stroke:none;stroke-width:0"
               d="m 4.53125,-4.984375 c 0,-0.65625 -0.171875,-2.046875 -1.1875,-2.046875 -1.390625,0 -2.921875,2.8125 -2.921875,5.09375 0,0.9375 0.28125,2.046875 1.1875,2.046875 1.40625,0 2.921875,-2.859375 2.921875,-5.09375 z M 1.46875,-3.625 C 1.640625,-4.25 1.84375,-5.046875 2.25,-5.765625 2.515625,-6.25 2.875,-6.8125 3.328125,-6.8125 c 0.484375,0 0.546875,0.640625 0.546875,1.203125 0,0.5 -0.078125,1 -0.3125,1.984375 z m 2,0.328125 C 3.359375,-2.84375 3.15625,-2 2.765625,-1.28125 c -0.34375,0.6875 -0.71875,1.171875 -1.15625,1.171875 -0.328125,0 -0.53125,-0.296875 -0.53125,-1.21875 0,-0.421875 0.0625,-1 0.3125,-1.96875 z m 0,0"
               id="id-4b96ed0d-969b-41a1-85cc-f513fd7348af" />
          </g>
        </g>
      </g>
    </g>
    <path
       style="fill:none;stroke:#000000;stroke-width:0.265;stroke-linecap:butt;stroke-linejoin:miter;stroke-miterlimit:4;stroke-dasharray:none;stroke-opacity:1;marker-end:url(#Arrow1Lend-2)"
       d="m 284.21389,148.61338 2.08989,-34.19932"
       id="path1388" />
    <path
       style="fill:none;stroke:#000000;stroke-width:0.265;stroke-linecap:butt;stroke-linejoin:miter;stroke-miterlimit:4;stroke-dasharray:1.06, 2.12;stroke-dashoffset:0;stroke-opacity:1"
       d="m 344.38822,99.175557 2.08989,-34.19931"
       id="path1388-9" />
    <path
       style="fill:none;stroke:#000000;stroke-width:0.265;stroke-linecap:butt;stroke-linejoin:miter;stroke-miterlimit:4;stroke-dasharray:1.06, 2.12;stroke-dashoffset:0;stroke-opacity:1"
       d="m 325.15757,129.00972 2.08989,-34.199304"
       id="path1388-9-1" />
    <g
       transform="matrix(0.705556,0,0,0.705556,287.26375,120.22504)"
       ns1:version="1.6.0"
       ns1:texconverter="pdflatex"
       ns1:pdfconverter="inkscape"
       ns1:text="$\\underline{c}$"
       ns1:preamble="C:\Users\rag\AppData\Roaming\inkscape\extensions\textext\default_packages.tex"
       ns1:scale="2.0"
       ns1:alignment="middle center"
       ns1:stroke-to-path="0"
       ns1:inkscapeversion="1.1.1"
       ns1:jacobian_sqrt="0.705556"
       id="g1917">
      <defs
         id="id-7c387236-c98b-4af4-9fc1-ad948d23243a">
        <g
           id="id-19c11da5-96f0-450d-93a9-1ebcb99eb1f3">
          <symbol
             overflow="visible"
             id="id-2407bd5e-4a64-4738-a777-7e6c4a4eaaf2">
            <path
               style="stroke:none;stroke-width:0"
               d=""
               id="id-16b2c329-7eb3-4668-82b8-14563cae1ad3" />
          </symbol>
          <symbol
             overflow="visible"
             id="id-8ea7446f-3f9a-41cc-a176-e1026d409c35">
            <path
               style="stroke:none;stroke-width:0"
               d="m 3.953125,-3.78125 c -0.171875,0 -0.296875,0 -0.4375,0.125 -0.171875,0.15625 -0.1875,0.328125 -0.1875,0.390625 0,0.25 0.1875,0.359375 0.375,0.359375 0.28125,0 0.546875,-0.25 0.546875,-0.640625 0,-0.484375 -0.46875,-0.859375 -1.171875,-0.859375 -1.34375,0 -2.671875,1.421875 -2.671875,2.828125 0,0.90625 0.578125,1.6875 1.625,1.6875 1.421875,0 2.25,-1.0625 2.25,-1.171875 0,-0.0625 -0.046875,-0.140625 -0.109375,-0.140625 -0.0625,0 -0.078125,0.03125 -0.140625,0.109375 -0.78125,0.984375 -1.875,0.984375 -1.984375,0.984375 -0.625,0 -0.90625,-0.484375 -0.90625,-1.09375 0,-0.40625 0.203125,-1.375 0.546875,-1.984375 0.3125,-0.578125 0.859375,-1 1.40625,-1 0.328125,0 0.71875,0.125 0.859375,0.40625 z m 0,0"
               id="id-9f1faae9-aaeb-4559-a5f0-9621e3bf2754" />
          </symbol>
        </g>
      </defs>
      <g
         id="id-f6233813-91a2-4657-9091-4954680c5ac0"
         transform="translate(-148.711,-130.359)">
        <g
           style="fill:#000000;fill-opacity:1"
           id="id-3650f570-4e36-4942-8ced-5bf713667949">
          <g
             transform="translate(148.712,134.765)"
             id="g1912">
            <path
               style="stroke:none;stroke-width:0"
               d="m 3.953125,-3.78125 c -0.171875,0 -0.296875,0 -0.4375,0.125 -0.171875,0.15625 -0.1875,0.328125 -0.1875,0.390625 0,0.25 0.1875,0.359375 0.375,0.359375 0.28125,0 0.546875,-0.25 0.546875,-0.640625 0,-0.484375 -0.46875,-0.859375 -1.171875,-0.859375 -1.34375,0 -2.671875,1.421875 -2.671875,2.828125 0,0.90625 0.578125,1.6875 1.625,1.6875 1.421875,0 2.25,-1.0625 2.25,-1.171875 0,-0.0625 -0.046875,-0.140625 -0.109375,-0.140625 -0.0625,0 -0.078125,0.03125 -0.140625,0.109375 -0.78125,0.984375 -1.875,0.984375 -1.984375,0.984375 -0.625,0 -0.90625,-0.484375 -0.90625,-1.09375 0,-0.40625 0.203125,-1.375 0.546875,-1.984375 0.3125,-0.578125 0.859375,-1 1.40625,-1 0.328125,0 0.71875,0.125 0.859375,0.40625 z m 0,0"
               id="id-7ff3637e-769f-46c3-92e0-faaa5f9aabcc" />
          </g>
        </g>
        <path
           style="fill:none;stroke:#000000;stroke-width:0.398;stroke-linecap:butt;stroke-linejoin:miter;stroke-miterlimit:10;stroke-opacity:1"
           d="M -0.0010625,-0.00115625 H 4.311438"
           transform="matrix(1,0,0,-1,148.712,136.159)"
           id="id-69c7d35d-388b-48e1-9369-53caf56c3f85" />
      </g>
    </g>
    <path
       style="fill:none;stroke:#000000;stroke-width:0.264583px;stroke-linecap:butt;stroke-linejoin:miter;stroke-opacity:1;marker-end:url(#Arrow1Lend)"
       d="M 284.0597,148.91965 V 107.0873"
       id="path2034" />
    <g
       transform="matrix(0.705556,0,0,0.705556,267.03332,112.96934)"
       ns1:version="1.6.0"
       ns1:texconverter="pdflatex"
       ns1:pdfconverter="inkscape"
       ns1:text="$\\underline{a} \\wedge \\underline{b}$"
       ns1:preamble="C:\Users\rag\AppData\Roaming\inkscape\extensions\textext\default_packages.tex"
       ns1:scale="2.0"
       ns1:alignment="middle center"
       ns1:stroke-to-path="0"
       ns1:inkscapeversion="1.1.1"
       ns1:jacobian_sqrt="0.705556"
       id="g2243">
      <defs
         id="id-25cda7db-c607-44c6-a647-0dba13f2075d">
        <g
           id="id-36e18a92-4b38-443b-b8f8-39d4981c915e">
          <symbol
             overflow="visible"
             id="id-741e3965-d612-45ac-863f-3bfe8a8f4caf">
            <path
               style="stroke:none;stroke-width:0"
               d=""
               id="id-0f07ecad-eecb-47c2-9088-b26a3e059d6b" />
          </symbol>
          <symbol
             overflow="visible"
             id="id-a5b2ad6f-e0ea-454f-bc2f-a56f2b71a2e3">
            <path
               style="stroke:none;stroke-width:0"
               d="M 3.71875,-3.765625 C 3.53125,-4.140625 3.25,-4.40625 2.796875,-4.40625 c -1.15625,0 -2.390625,1.46875 -2.390625,2.921875 0,0.9375 0.546875,1.59375 1.3125,1.59375 0.203125,0 0.703125,-0.046875 1.296875,-0.75 0.078125,0.421875 0.4375,0.75 0.90625,0.75 0.359375,0 0.578125,-0.234375 0.75,-0.546875 0.15625,-0.359375 0.296875,-0.96875 0.296875,-0.984375 0,-0.109375 -0.09375,-0.109375 -0.125,-0.109375 -0.09375,0 -0.109375,0.046875 -0.140625,0.1875 -0.171875,0.640625 -0.34375,1.234375 -0.75,1.234375 -0.28125,0 -0.296875,-0.265625 -0.296875,-0.453125 0,-0.21875 0.015625,-0.3125 0.125,-0.75 C 3.890625,-1.71875 3.90625,-1.828125 4,-2.203125 L 4.359375,-3.59375 c 0.0625,-0.28125 0.0625,-0.296875 0.0625,-0.34375 0,-0.171875 -0.109375,-0.265625 -0.28125,-0.265625 -0.25,0 -0.390625,0.21875 -0.421875,0.4375 z M 3.078125,-1.1875 C 3.015625,-1 3.015625,-0.984375 2.875,-0.8125 2.4375,-0.265625 2.03125,-0.109375 1.75,-0.109375 c -0.5,0 -0.640625,-0.546875 -0.640625,-0.9375 0,-0.5 0.3125,-1.71875 0.546875,-2.1875 0.3125,-0.578125 0.75,-0.953125 1.15625,-0.953125 0.640625,0 0.78125,0.8125 0.78125,0.875 0,0.0625 -0.015625,0.125 -0.03125,0.171875 z m 0,0"
               id="id-f21ca6c6-7af2-46b9-a505-7f25bb0302b9" />
          </symbol>
          <symbol
             overflow="visible"
             id="id-cfc4843e-1ec3-44c4-8739-4e0f9cc182c6">
            <path
               style="stroke:none;stroke-width:0"
               d="m 2.375,-6.8125 c 0,0 0,-0.109375 -0.125,-0.109375 -0.21875,0 -0.953125,0.078125 -1.21875,0.109375 -0.078125,0 -0.1875,0.015625 -0.1875,0.1875 0,0.125 0.09375,0.125 0.25,0.125 0.46875,0 0.484375,0.0625 0.484375,0.171875 0,0.0625 -0.078125,0.40625 -0.125,0.609375 l -0.828125,3.25 c -0.109375,0.5 -0.15625,0.671875 -0.15625,1.015625 0,0.9375 0.53125,1.5625 1.265625,1.5625 1.171875,0 2.40625,-1.484375 2.40625,-2.921875 0,-0.90625 -0.53125,-1.59375 -1.328125,-1.59375 -0.453125,0 -0.875,0.296875 -1.171875,0.59375 z M 1.453125,-3.046875 C 1.5,-3.265625 1.5,-3.28125 1.59375,-3.390625 2.078125,-4.03125 2.53125,-4.1875 2.796875,-4.1875 c 0.359375,0 0.625,0.296875 0.625,0.9375 0,0.59375 -0.328125,1.734375 -0.515625,2.109375 -0.328125,0.671875 -0.78125,1.03125 -1.171875,1.03125 -0.34375,0 -0.671875,-0.265625 -0.671875,-1 0,-0.203125 0,-0.390625 0.15625,-1.015625 z m 0,0"
               id="id-6b51bd17-3dae-4900-aaf2-b85028db1604" />
          </symbol>
          <symbol
             overflow="visible"
             id="id-6c477f6a-2484-4002-a5c7-3c55377e5771">
            <path
               style="stroke:none;stroke-width:0"
               d=""
               id="id-e78c75f5-552d-4396-9534-e721d4c97dca" />
          </symbol>
          <symbol
             overflow="visible"
             id="id-5cc675ec-03a4-47f9-9cac-3f36dcb8c456">
            <path
               style="stroke:none;stroke-width:0"
               d="M 3.546875,-5.75 C 3.46875,-5.921875 3.40625,-5.96875 3.3125,-5.96875 c -0.125,0 -0.15625,0.078125 -0.21875,0.21875 L 0.625,-0.171875 c -0.0625,0.125 -0.078125,0.140625 -0.078125,0.1875 0,0.109375 0.09375,0.203125 0.203125,0.203125 0.0625,0 0.140625,-0.015625 0.234375,-0.203125 L 3.3125,-5.28125 5.65625,0.015625 C 5.75,0.21875 5.859375,0.21875 5.890625,0.21875 6,0.21875 6.09375,0.125 6.09375,0.015625 c 0,-0.015625 0,-0.03125 -0.0625,-0.15625 z m 0,0"
               id="id-e793b734-dd34-4dbc-a460-68ba6c1bbf0e" />
          </symbol>
        </g>
      </defs>
      <g
         id="id-1b375725-2ec5-4c7a-9ff9-a91172bed819"
         transform="translate(-148.711,-127.843)">
        <g
           style="fill:#000000;fill-opacity:1"
           id="id-75454a9f-8971-4ba8-85ac-511de4f08e40">
          <g
             transform="translate(148.712,134.765)"
             id="g2229">
            <path
               style="stroke:none;stroke-width:0"
               d="M 3.71875,-3.765625 C 3.53125,-4.140625 3.25,-4.40625 2.796875,-4.40625 c -1.15625,0 -2.390625,1.46875 -2.390625,2.921875 0,0.9375 0.546875,1.59375 1.3125,1.59375 0.203125,0 0.703125,-0.046875 1.296875,-0.75 0.078125,0.421875 0.4375,0.75 0.90625,0.75 0.359375,0 0.578125,-0.234375 0.75,-0.546875 0.15625,-0.359375 0.296875,-0.96875 0.296875,-0.984375 0,-0.109375 -0.09375,-0.109375 -0.125,-0.109375 -0.09375,0 -0.109375,0.046875 -0.140625,0.1875 -0.171875,0.640625 -0.34375,1.234375 -0.75,1.234375 -0.28125,0 -0.296875,-0.265625 -0.296875,-0.453125 0,-0.21875 0.015625,-0.3125 0.125,-0.75 C 3.890625,-1.71875 3.90625,-1.828125 4,-2.203125 L 4.359375,-3.59375 c 0.0625,-0.28125 0.0625,-0.296875 0.0625,-0.34375 0,-0.171875 -0.109375,-0.265625 -0.28125,-0.265625 -0.25,0 -0.390625,0.21875 -0.421875,0.4375 z M 3.078125,-1.1875 C 3.015625,-1 3.015625,-0.984375 2.875,-0.8125 2.4375,-0.265625 2.03125,-0.109375 1.75,-0.109375 c -0.5,0 -0.640625,-0.546875 -0.640625,-0.9375 0,-0.5 0.3125,-1.71875 0.546875,-2.1875 0.3125,-0.578125 0.75,-0.953125 1.15625,-0.953125 0.640625,0 0.78125,0.8125 0.78125,0.875 0,0.0625 -0.015625,0.125 -0.03125,0.171875 z m 0,0"
               id="id-22d2f440-36e0-46e5-bfb0-f0051e50553b" />
          </g>
        </g>
        <path
           style="fill:none;stroke:#000000;stroke-width:0.398;stroke-linecap:butt;stroke-linejoin:miter;stroke-miterlimit:10;stroke-opacity:1"
           d="M -0.0010625,-0.00115625 H 5.264563"
           transform="matrix(1,0,0,-1,148.712,136.159)"
           id="id-948d2dcd-8891-401e-b566-6edad9c20743" />
        <g
           style="fill:#000000;fill-opacity:1"
           id="id-17a50b7e-b8a9-4061-bc40-c4121b63ff44">
          <g
             transform="translate(156.192,134.765)"
             id="g2234">
            <path
               style="stroke:none;stroke-width:0"
               d="M 3.546875,-5.75 C 3.46875,-5.921875 3.40625,-5.96875 3.3125,-5.96875 c -0.125,0 -0.15625,0.078125 -0.21875,0.21875 L 0.625,-0.171875 c -0.0625,0.125 -0.078125,0.140625 -0.078125,0.1875 0,0.109375 0.09375,0.203125 0.203125,0.203125 0.0625,0 0.140625,-0.015625 0.234375,-0.203125 L 3.3125,-5.28125 5.65625,0.015625 C 5.75,0.21875 5.859375,0.21875 5.890625,0.21875 6,0.21875 6.09375,0.125 6.09375,0.015625 c 0,-0.015625 0,-0.03125 -0.0625,-0.15625 z m 0,0"
               id="id-333f9c7e-9847-4c5a-aab1-8f108cb7a67e" />
          </g>
        </g>
        <g
           style="fill:#000000;fill-opacity:1"
           id="id-19c50243-7491-4d38-9561-3952dee22fe9">
          <g
             transform="translate(165.048,134.765)"
             id="g2238">
            <path
               style="stroke:none;stroke-width:0"
               d="m 2.375,-6.8125 c 0,0 0,-0.109375 -0.125,-0.109375 -0.21875,0 -0.953125,0.078125 -1.21875,0.109375 -0.078125,0 -0.1875,0.015625 -0.1875,0.1875 0,0.125 0.09375,0.125 0.25,0.125 0.46875,0 0.484375,0.0625 0.484375,0.171875 0,0.0625 -0.078125,0.40625 -0.125,0.609375 l -0.828125,3.25 c -0.109375,0.5 -0.15625,0.671875 -0.15625,1.015625 0,0.9375 0.53125,1.5625 1.265625,1.5625 1.171875,0 2.40625,-1.484375 2.40625,-2.921875 0,-0.90625 -0.53125,-1.59375 -1.328125,-1.59375 -0.453125,0 -0.875,0.296875 -1.171875,0.59375 z M 1.453125,-3.046875 C 1.5,-3.265625 1.5,-3.28125 1.59375,-3.390625 2.078125,-4.03125 2.53125,-4.1875 2.796875,-4.1875 c 0.359375,0 0.625,0.296875 0.625,0.9375 0,0.59375 -0.328125,1.734375 -0.515625,2.109375 -0.328125,0.671875 -0.78125,1.03125 -1.171875,1.03125 -0.34375,0 -0.671875,-0.265625 -0.671875,-1 0,-0.203125 0,-0.390625 0.15625,-1.015625 z m 0,0"
               id="id-434c6d22-9879-4faa-ae45-729da9fc9867" />
          </g>
        </g>
        <path
           style="fill:none;stroke:#000000;stroke-width:0.398;stroke-linecap:butt;stroke-linejoin:miter;stroke-miterlimit:10;stroke-opacity:1"
           d="M -0.001125,-0.00115625 H 4.276219"
           transform="matrix(1,0,0,-1,165.048,136.159)"
           id="id-60d12c8f-1cd6-4e3d-a34a-2185b9dd6e15" />
      </g>
    </g>
    <path
       style="fill:none;stroke:#000000;stroke-width:0.264583px;stroke-linecap:butt;stroke-linejoin:miter;stroke-opacity:1"
       d="m 283.99266,124.38337 c 0.66467,-0.11646 1.34487,-0.15207 1.8771,0"
       id="path2451" />
    <g
       transform="matrix(0.705556,0,0,0.705556,279.36434,124.06893)"
       ns1:version="1.6.0"
       ns1:texconverter="pdflatex"
       ns1:pdfconverter="inkscape"
       ns1:text="$\\phi$"
       ns1:preamble="C:\Users\rag\AppData\Roaming\inkscape\extensions\textext\default_packages.tex"
       ns1:scale="2.0"
       ns1:alignment="middle center"
       ns1:stroke-to-path="0"
       ns1:inkscapeversion="1.1.1"
       ns1:jacobian_sqrt="0.705556"
       id="g2696">
      <defs
         id="id-759d4224-e7b8-4e86-9185-d16e7c6ff913">
        <g
           id="id-14d919af-0188-4c87-9323-136cc5a718cd">
          <symbol
             overflow="visible"
             id="id-fc14c2c0-58c2-4f83-94b9-7958415e0442">
            <path
               style="stroke:none;stroke-width:0"
               d=""
               id="id-5b94f17e-c8f5-4a28-99bd-270160685b21" />
          </symbol>
          <symbol
             overflow="visible"
             id="id-fb164bae-763c-4a3a-834e-1e50242db204">
            <path
               style="stroke:none;stroke-width:0"
               d="m 4.359375,-6.671875 c 0,-0.03125 0.03125,-0.140625 0.03125,-0.140625 0,-0.015625 0,-0.109375 -0.125,-0.109375 -0.09375,0 -0.109375,0.03125 -0.15625,0.203125 L 3.53125,-4.421875 c -1.578125,0.0625 -3.046875,1.375 -3.046875,2.734375 0,0.953125 0.703125,1.734375 1.921875,1.8125 C 2.328125,0.421875 2.25,0.75 2.171875,1.0625 c -0.125,0.46875 -0.21875,0.84375 -0.21875,0.875 0,0.09375 0.078125,0.109375 0.125,0.109375 C 2.125,2.046875 2.140625,2.03125 2.171875,2 2.1875,1.984375 2.25,1.75 2.28125,1.609375 L 2.65625,0.125 c 1.609375,-0.0625 3.0625,-1.40625 3.0625,-2.734375 0,-0.796875 -0.53125,-1.703125 -1.921875,-1.8125 z m -1.90625,6.578125 c -0.59375,-0.03125 -1.3125,-0.390625 -1.3125,-1.375 0,-1.203125 0.859375,-2.59375 2.34375,-2.734375 z m 1.28125,-4.109375 c 0.765625,0.046875 1.328125,0.5 1.328125,1.375 0,1.1875 -0.859375,2.609375 -2.34375,2.734375 z m 0,0"
               id="id-054bd4d0-9260-4875-a8ba-68cd1b0a7770" />
          </symbol>
        </g>
      </defs>
      <g
         id="id-753d853d-a11b-4875-a4e3-1212c4802e7f"
         transform="translate(-149.196,-127.843)">
        <g
           style="fill:#000000;fill-opacity:1"
           id="id-960263b7-c9da-4591-a388-690f21ce2f5a">
          <g
             transform="translate(148.712,134.765)"
             id="g2692">
            <path
               style="stroke:none;stroke-width:0"
               d="m 4.359375,-6.671875 c 0,-0.03125 0.03125,-0.140625 0.03125,-0.140625 0,-0.015625 0,-0.109375 -0.125,-0.109375 -0.09375,0 -0.109375,0.03125 -0.15625,0.203125 L 3.53125,-4.421875 c -1.578125,0.0625 -3.046875,1.375 -3.046875,2.734375 0,0.953125 0.703125,1.734375 1.921875,1.8125 C 2.328125,0.421875 2.25,0.75 2.171875,1.0625 c -0.125,0.46875 -0.21875,0.84375 -0.21875,0.875 0,0.09375 0.078125,0.109375 0.125,0.109375 C 2.125,2.046875 2.140625,2.03125 2.171875,2 2.1875,1.984375 2.25,1.75 2.28125,1.609375 L 2.65625,0.125 c 1.609375,-0.0625 3.0625,-1.40625 3.0625,-2.734375 0,-0.796875 -0.53125,-1.703125 -1.921875,-1.8125 z m -1.90625,6.578125 c -0.59375,-0.03125 -1.3125,-0.390625 -1.3125,-1.375 0,-1.203125 0.859375,-2.59375 2.34375,-2.734375 z m 1.28125,-4.109375 c 0.765625,0.046875 1.328125,0.5 1.328125,1.375 0,1.1875 -0.859375,2.609375 -2.34375,2.734375 z m 0,0"
               id="id-1eebd6d9-81f1-40a6-8185-58917a2ba506" />
          </g>
        </g>
      </g>
    </g>
  </g>
</svg>
