<?xml version="1.0" encoding="UTF-8" standalone="no"?>
<!-- Created with Inkscape (http://www.inkscape.org/) -->

<svg
   width="270.7536"
   height="173.1196"
   viewBox="0 0 71.63689 45.80456"
   version="1.1"
   id="svg5"
   inkscape:version="1.1.1 (3bf5ae0d25, 2021-09-20)"
   sodipodi:docname="01-interpretation.svg"
   xmlns:inkscape="http://www.inkscape.org/namespaces/inkscape"
   xmlns:sodipodi="http://sodipodi.sourceforge.net/DTD/sodipodi-0.dtd"
   xmlns="http://www.w3.org/2000/svg"
   xmlns:svg="http://www.w3.org/2000/svg"
   xmlns:ns1="http://www.iki.fi/pav/software/textext/">
  <sodipodi:namedview
     id="namedview7"
     pagecolor="#ffffff"
     bordercolor="#666666"
     borderopacity="1.0"
     inkscape:pageshadow="2"
     inkscape:pageopacity="0.0"
     inkscape:pagecheckerboard="0"
     inkscape:document-units="mm"
     showgrid="false"
     units="px"
     inkscape:snap-global="false"
     inkscape:zoom="2.8284271"
     inkscape:cx="12.197592"
     inkscape:cy="77.604969"
     inkscape:window-width="2560"
     inkscape:window-height="1377"
     inkscape:window-x="-8"
     inkscape:window-y="-8"
     inkscape:window-maximized="1"
     inkscape:current-layer="layer1"
     fit-margin-top="0"
     fit-margin-left="0"
     fit-margin-right="0"
     fit-margin-bottom="0" />
  <defs
     id="defs2">
    <inkscape:path-effect
       effect="simplify"
       id="path-effect26697"
       is_visible="true"
       lpeversion="1"
       steps="1"
       threshold="0.5"
       smooth_angles="360"
       helper_size="0"
       simplify_individual_paths="false"
       simplify_just_coalesce="false" />
    <inkscape:path-effect
       effect="simplify"
       id="path-effect26693"
       is_visible="true"
       lpeversion="1"
       steps="1"
       threshold="0.5"
       smooth_angles="360"
       helper_size="0"
       simplify_individual_paths="false"
       simplify_just_coalesce="false" />
    <inkscape:path-effect
       effect="simplify"
       id="path-effect26571"
       is_visible="true"
       lpeversion="1"
       steps="1"
       threshold="0.5"
       smooth_angles="360"
       helper_size="0"
       simplify_individual_paths="false"
       simplify_just_coalesce="false" />
    <inkscape:path-effect
       effect="simplify"
       id="path-effect26453"
       is_visible="true"
       lpeversion="1"
       steps="1"
       threshold="0.5"
       smooth_angles="360"
       helper_size="0"
       simplify_individual_paths="false"
       simplify_just_coalesce="false" />
    <marker
       style="overflow:visible"
       id="Arrow1Lend"
       refX="0"
       refY="0"
       orient="auto"
       inkscape:stockid="Arrow1Lend"
       inkscape:isstock="true">
      <path
         transform="matrix(-0.8,0,0,-0.8,-10,0)"
         style="fill:context-stroke;fill-rule:evenodd;stroke:context-stroke;stroke-width:1pt"
         d="M 0,0 5,-5 -12.5,0 5,5 Z"
         id="path2003" />
    </marker>
    <marker
       style="overflow:visible"
       id="Arrow1Lend-7"
       refX="0"
       refY="0"
       orient="auto"
       inkscape:stockid="Arrow1Lend"
       inkscape:isstock="true">
      <path
         transform="matrix(-0.8,0,0,-0.8,-10,0)"
         style="fill:context-stroke;fill-rule:evenodd;stroke:context-stroke;stroke-width:1pt"
         d="M 0,0 5,-5 -12.5,0 5,5 Z"
         id="path2003-0" />
    </marker>
    <marker
       style="overflow:visible"
       id="Arrow1Lend-73"
       refX="0"
       refY="0"
       orient="auto"
       inkscape:stockid="Arrow1Lend"
       inkscape:isstock="true">
      <path
         transform="matrix(-0.8,0,0,-0.8,-10,0)"
         style="fill:context-stroke;fill-rule:evenodd;stroke:context-stroke;stroke-width:1pt"
         d="M 0,0 5,-5 -12.5,0 5,5 Z"
         id="path2003-3" />
    </marker>
    <marker
       style="overflow:visible"
       id="Arrow1Lend-2"
       refX="0"
       refY="0"
       orient="auto"
       inkscape:stockid="Arrow1Lend"
       inkscape:isstock="true">
      <path
         transform="matrix(-0.8,0,0,-0.8,-10,0)"
         style="fill:context-stroke;fill-rule:evenodd;stroke:context-stroke;stroke-width:1pt"
         d="M 0,0 5,-5 -12.5,0 5,5 Z"
         id="path2003-9" />
    </marker>
    <marker
       style="overflow:visible"
       id="Arrow1Lend-79"
       refX="0"
       refY="0"
       orient="auto"
       inkscape:stockid="Arrow1Lend"
       inkscape:isstock="true">
      <path
         transform="matrix(-0.8,0,0,-0.8,-10,0)"
         style="fill:context-stroke;fill-rule:evenodd;stroke:context-stroke;stroke-width:1pt"
         d="M 0,0 5,-5 -12.5,0 5,5 Z"
         id="path2003-1" />
    </marker>
  </defs>
  <g
     inkscape:label="Layer 1"
     inkscape:groupmode="layer"
     id="layer1"
     transform="translate(-289.99607,-114.47545)">
    <path
       style="fill:none;stroke:#000000;stroke-width:0.149024px;stroke-linecap:butt;stroke-linejoin:miter;stroke-opacity:1;marker-end:url(#Arrow1Lend)"
       d="m 297.45825,157.55424 c -0.51045,-0.36887 0,-42.7895 0,-42.7895"
       id="path77" />
    <path
       style="fill:none;stroke:#000000;stroke-width:0.140815px;stroke-linecap:butt;stroke-linejoin:miter;stroke-opacity:1;marker-end:url(#Arrow1Lend)"
       d="m 293.04299,152.63967 c 68.3166,0 68.3166,0 68.3166,0"
       id="path79" />
    <text
       xml:space="preserve"
       style="font-style:normal;font-weight:normal;font-size:10.5833px;line-height:1.25;font-family:sans-serif;fill:#000000;fill-opacity:1;stroke:none;stroke-width:0.264583"
       x="266.82214"
       y="193.81169"
       id="text21852"><tspan
         sodipodi:role="line"
         id="tspan21850"
         style="stroke-width:0.264583"
         x="266.82214"
         y="193.81169" /></text>
    <path
       style="fill:none;stroke:#000000;stroke-width:0.38834;stroke-linecap:butt;stroke-linejoin:miter;stroke-miterlimit:4;stroke-dasharray:none;stroke-opacity:1;marker-end:url(#Arrow1Lend)"
       d="m 297.09196,152.48641 c 57.51748,-29.16473 57.51748,-29.16473 57.51748,-29.16473"
       id="path1366" />
    <path
       style="fill:none;stroke:#000000;stroke-width:0.265;stroke-linecap:butt;stroke-linejoin:miter;stroke-miterlimit:4;stroke-dasharray:none;stroke-opacity:1;marker-end:url(#Arrow1Lend)"
       d="m 297.13708,152.36622 c 0.0493,-13.65922 0.0493,-13.65922 0.0493,-13.65922"
       id="path1368"
       inkscape:transform-center-x="-0.2402016"
       inkscape:transform-center-y="-6.8620769" />
    <path
       style="fill:none;stroke:#000000;stroke-width:0.356775;stroke-linecap:butt;stroke-linejoin:miter;stroke-miterlimit:4;stroke-dasharray:none;stroke-opacity:1;marker-end:url(#Arrow1Lend-2)"
       d="m 297.18009,152.95469 c 0.0378,-32.2646 0.0378,-32.2646 0.0378,-32.2646"
       id="path1368-7"
       inkscape:transform-center-x="-0.18430679"
       inkscape:transform-center-y="-16.208984" />
    <g
       transform="matrix(0.705556,0,0,0.705556,357.21541,117.0467)"
       ns1:version="1.6.0"
       ns1:texconverter="pdflatex"
       ns1:pdfconverter="inkscape"
       ns1:text="$\\underline{b}$"
       ns1:preamble="C:\Users\rag\AppData\Roaming\inkscape\extensions\textext\default_packages.tex"
       ns1:scale="2.0"
       ns1:alignment="middle center"
       ns1:stroke-to-path="0"
       ns1:inkscapeversion="1.1.1"
       ns1:jacobian_sqrt="0.705556"
       id="g2065">
      <defs
         id="id-77826ec3-ad5a-4cc9-ba6e-d2e33f6883e2">
        <g
           id="id-27779420-c2bb-4c86-9551-d3531edcc7b2">
          <symbol
             overflow="visible"
             id="id-45f69393-c713-43c3-bdbc-716d3f5144a2">
            <path
               style="stroke:none;stroke-width:0"
               d=""
               id="id-35af578e-89c3-4444-b749-914705b42d71" />
          </symbol>
          <symbol
             overflow="visible"
             id="id-7ce2eb96-6cf5-4715-8e69-d0689e962a9e">
            <path
               style="stroke:none;stroke-width:0"
               d="m 2.375,-6.8125 c 0,0 0,-0.109375 -0.125,-0.109375 -0.21875,0 -0.953125,0.078125 -1.21875,0.109375 -0.078125,0 -0.1875,0.015625 -0.1875,0.1875 0,0.125 0.09375,0.125 0.25,0.125 0.46875,0 0.484375,0.0625 0.484375,0.171875 0,0.0625 -0.078125,0.40625 -0.125,0.609375 l -0.828125,3.25 c -0.109375,0.5 -0.15625,0.671875 -0.15625,1.015625 0,0.9375 0.53125,1.5625 1.265625,1.5625 1.171875,0 2.40625,-1.484375 2.40625,-2.921875 0,-0.90625 -0.53125,-1.59375 -1.328125,-1.59375 -0.453125,0 -0.875,0.296875 -1.171875,0.59375 z M 1.453125,-3.046875 C 1.5,-3.265625 1.5,-3.28125 1.59375,-3.390625 2.078125,-4.03125 2.53125,-4.1875 2.796875,-4.1875 c 0.359375,0 0.625,0.296875 0.625,0.9375 0,0.59375 -0.328125,1.734375 -0.515625,2.109375 -0.328125,0.671875 -0.78125,1.03125 -1.171875,1.03125 -0.34375,0 -0.671875,-0.265625 -0.671875,-1 0,-0.203125 0,-0.390625 0.15625,-1.015625 z m 0,0"
               id="id-4651da55-ede7-4c87-a209-536e05ca87c1" />
          </symbol>
        </g>
      </defs>
      <g
         id="id-713e59d0-67e3-4a53-a509-9eaa1d7ee572"
         transform="translate(-148.711,-127.843)">
        <g
           style="fill:#000000;fill-opacity:1"
           id="id-74a81094-f972-4321-86cf-b4148deed52c">
          <g
             transform="translate(148.712,134.765)"
             id="g2060">
            <path
               style="stroke:none;stroke-width:0"
               d="m 2.375,-6.8125 c 0,0 0,-0.109375 -0.125,-0.109375 -0.21875,0 -0.953125,0.078125 -1.21875,0.109375 -0.078125,0 -0.1875,0.015625 -0.1875,0.1875 0,0.125 0.09375,0.125 0.25,0.125 0.46875,0 0.484375,0.0625 0.484375,0.171875 0,0.0625 -0.078125,0.40625 -0.125,0.609375 l -0.828125,3.25 c -0.109375,0.5 -0.15625,0.671875 -0.15625,1.015625 0,0.9375 0.53125,1.5625 1.265625,1.5625 1.171875,0 2.40625,-1.484375 2.40625,-2.921875 0,-0.90625 -0.53125,-1.59375 -1.328125,-1.59375 -0.453125,0 -0.875,0.296875 -1.171875,0.59375 z M 1.453125,-3.046875 C 1.5,-3.265625 1.5,-3.28125 1.59375,-3.390625 2.078125,-4.03125 2.53125,-4.1875 2.796875,-4.1875 c 0.359375,0 0.625,0.296875 0.625,0.9375 0,0.59375 -0.328125,1.734375 -0.515625,2.109375 -0.328125,0.671875 -0.78125,1.03125 -1.171875,1.03125 -0.34375,0 -0.671875,-0.265625 -0.671875,-1 0,-0.203125 0,-0.390625 0.15625,-1.015625 z m 0,0"
               id="id-2e340393-a054-4694-9e7b-2a89bdd500c5" />
          </g>
        </g>
        <path
           style="fill:none;stroke:#000000;stroke-width:0.398;stroke-linecap:butt;stroke-linejoin:miter;stroke-miterlimit:10;stroke-opacity:1"
           d="M -0.0010625,-0.00115625 H 4.276281"
           transform="matrix(1,0,0,-1,148.712,136.159)"
           id="id-4539a369-3912-4164-8009-1f12f117308e" />
      </g>
    </g>
    <path
       style="fill:none;stroke:#000000;stroke-width:0.387729;stroke-linecap:butt;stroke-linejoin:miter;stroke-miterlimit:4;stroke-dasharray:2.32638, 2.32638;stroke-dashoffset:0;stroke-opacity:1"
       d="m 355.20531,122.98595 v 29.78941"
       id="path2139" />
    <path
       style="fill:none;stroke:#000000;stroke-width:0.387729;stroke-linecap:butt;stroke-linejoin:miter;stroke-miterlimit:4;stroke-dasharray:3.10183, 3.10183;stroke-dashoffset:0;stroke-opacity:1"
       d="m 355.07274,123.04548 h -57.7184"
       id="path2141" />
    <path
       style="fill:none;stroke:#000000;stroke-width:0.264583px;stroke-linecap:butt;stroke-linejoin:miter;stroke-opacity:1"
       d="m 297.25249,148.28326 c 2.10518,-0.0758 3.79814,0.47732 5.05139,1.73057"
       id="path2256" />
    <g
       transform="matrix(0.705556,0,0,0.705556,299.47433,143.12145)"
       ns1:version="1.6.0"
       ns1:texconverter="pdflatex"
       ns1:pdfconverter="inkscape"
       ns1:text="$\\theta$"
       ns1:preamble="C:\Users\rag\AppData\Roaming\inkscape\extensions\textext\default_packages.tex"
       ns1:scale="2.0"
       ns1:alignment="middle center"
       ns1:stroke-to-path="0"
       ns1:inkscapeversion="1.1.1"
       ns1:jacobian_sqrt="0.705556"
       id="g2337">
      <defs
         id="id-bbf221e6-8d00-4184-aec7-0eea7cb8c910">
        <g
           id="id-82a55f5e-eb5c-4788-b69c-1505d8ea2f9a">
          <symbol
             overflow="visible"
             id="id-177f3010-c56e-4abc-9648-c707ba0553a7">
            <path
               style="stroke:none;stroke-width:0"
               d=""
               id="id-87c36184-16e5-4838-9434-a9e54e91e602" />
          </symbol>
          <symbol
             overflow="visible"
             id="id-f1902d8e-caa1-4b34-9d2f-ccf6fa308f2a">
            <path
               style="stroke:none;stroke-width:0"
               d="m 4.53125,-4.984375 c 0,-0.65625 -0.171875,-2.046875 -1.1875,-2.046875 -1.390625,0 -2.921875,2.8125 -2.921875,5.09375 0,0.9375 0.28125,2.046875 1.1875,2.046875 1.40625,0 2.921875,-2.859375 2.921875,-5.09375 z M 1.46875,-3.625 C 1.640625,-4.25 1.84375,-5.046875 2.25,-5.765625 2.515625,-6.25 2.875,-6.8125 3.328125,-6.8125 c 0.484375,0 0.546875,0.640625 0.546875,1.203125 0,0.5 -0.078125,1 -0.3125,1.984375 z m 2,0.328125 C 3.359375,-2.84375 3.15625,-2 2.765625,-1.28125 c -0.34375,0.6875 -0.71875,1.171875 -1.15625,1.171875 -0.328125,0 -0.53125,-0.296875 -0.53125,-1.21875 0,-0.421875 0.0625,-1 0.3125,-1.96875 z m 0,0"
               id="id-de7e1562-53a1-4cd9-948d-e1e9bcdc4526" />
          </symbol>
        </g>
      </defs>
      <g
         id="id-57e91f45-e015-4feb-8a99-5eea27f67e41"
         transform="translate(-149.134,-127.734)">
        <g
           style="fill:#000000;fill-opacity:1"
           id="id-2fcc0393-e9ca-462f-859c-72a5ccc0d542">
          <g
             transform="translate(148.712,134.765)"
             id="g2333">
            <path
               style="stroke:none;stroke-width:0"
               d="m 4.53125,-4.984375 c 0,-0.65625 -0.171875,-2.046875 -1.1875,-2.046875 -1.390625,0 -2.921875,2.8125 -2.921875,5.09375 0,0.9375 0.28125,2.046875 1.1875,2.046875 1.40625,0 2.921875,-2.859375 2.921875,-5.09375 z M 1.46875,-3.625 C 1.640625,-4.25 1.84375,-5.046875 2.25,-5.765625 2.515625,-6.25 2.875,-6.8125 3.328125,-6.8125 c 0.484375,0 0.546875,0.640625 0.546875,1.203125 0,0.5 -0.078125,1 -0.3125,1.984375 z m 2,0.328125 C 3.359375,-2.84375 3.15625,-2 2.765625,-1.28125 c -0.34375,0.6875 -0.71875,1.171875 -1.15625,1.171875 -0.328125,0 -0.53125,-0.296875 -0.53125,-1.21875 0,-0.421875 0.0625,-1 0.3125,-1.96875 z m 0,0"
               id="id-5fa2b0ea-3cfd-4af6-acb7-db2fe31427db" />
          </g>
        </g>
      </g>
    </g>
    <g
       transform="matrix(0.705556,0,0,0.705556,291.30215,142.61224)"
       ns1:version="1.6.0"
       ns1:texconverter="pdflatex"
       ns1:pdfconverter="inkscape"
       ns1:text="$\\underline{a}$"
       ns1:preamble="C:\Users\rag\AppData\Roaming\inkscape\extensions\textext\default_packages.tex"
       ns1:scale="2.0"
       ns1:alignment="middle center"
       ns1:stroke-to-path="0"
       ns1:inkscapeversion="1.1.1"
       ns1:jacobian_sqrt="0.705556"
       id="g2651">
      <defs
         id="id-3169223a-4fec-4ec8-995a-1cd29f2f4e8b">
        <g
           id="id-41885c6d-3765-4c6f-b4c3-72fbb29609b2">
          <symbol
             overflow="visible"
             id="id-6136ba0a-d217-4e29-b5d1-28833ee2bf5d">
            <path
               style="stroke:none;stroke-width:0"
               d=""
               id="id-dbf62277-2a9f-4c6d-a078-d92a6c5bb685" />
          </symbol>
          <symbol
             overflow="visible"
             id="id-6594c400-e82d-4f48-9f39-0c85d1b0c1b2">
            <path
               style="stroke:none;stroke-width:0"
               d="M 3.71875,-3.765625 C 3.53125,-4.140625 3.25,-4.40625 2.796875,-4.40625 c -1.15625,0 -2.390625,1.46875 -2.390625,2.921875 0,0.9375 0.546875,1.59375 1.3125,1.59375 0.203125,0 0.703125,-0.046875 1.296875,-0.75 0.078125,0.421875 0.4375,0.75 0.90625,0.75 0.359375,0 0.578125,-0.234375 0.75,-0.546875 0.15625,-0.359375 0.296875,-0.96875 0.296875,-0.984375 0,-0.109375 -0.09375,-0.109375 -0.125,-0.109375 -0.09375,0 -0.109375,0.046875 -0.140625,0.1875 -0.171875,0.640625 -0.34375,1.234375 -0.75,1.234375 -0.28125,0 -0.296875,-0.265625 -0.296875,-0.453125 0,-0.21875 0.015625,-0.3125 0.125,-0.75 C 3.890625,-1.71875 3.90625,-1.828125 4,-2.203125 L 4.359375,-3.59375 c 0.0625,-0.28125 0.0625,-0.296875 0.0625,-0.34375 0,-0.171875 -0.109375,-0.265625 -0.28125,-0.265625 -0.25,0 -0.390625,0.21875 -0.421875,0.4375 z M 3.078125,-1.1875 C 3.015625,-1 3.015625,-0.984375 2.875,-0.8125 2.4375,-0.265625 2.03125,-0.109375 1.75,-0.109375 c -0.5,0 -0.640625,-0.546875 -0.640625,-0.9375 0,-0.5 0.3125,-1.71875 0.546875,-2.1875 0.3125,-0.578125 0.75,-0.953125 1.15625,-0.953125 0.640625,0 0.78125,0.8125 0.78125,0.875 0,0.0625 -0.015625,0.125 -0.03125,0.171875 z m 0,0"
               id="id-c22c9a45-61fc-40ee-a4d4-00641207ed11" />
          </symbol>
        </g>
      </defs>
      <g
         id="id-492ee21c-d149-4bb9-9936-c3610afa96da"
         transform="translate(-148.711,-130.359)">
        <g
           style="fill:#000000;fill-opacity:1"
           id="id-013f6f9b-31db-44ca-a3f2-262d371b1a3a">
          <g
             transform="translate(148.712,134.765)"
             id="g2646">
            <path
               style="stroke:none;stroke-width:0"
               d="M 3.71875,-3.765625 C 3.53125,-4.140625 3.25,-4.40625 2.796875,-4.40625 c -1.15625,0 -2.390625,1.46875 -2.390625,2.921875 0,0.9375 0.546875,1.59375 1.3125,1.59375 0.203125,0 0.703125,-0.046875 1.296875,-0.75 0.078125,0.421875 0.4375,0.75 0.90625,0.75 0.359375,0 0.578125,-0.234375 0.75,-0.546875 0.15625,-0.359375 0.296875,-0.96875 0.296875,-0.984375 0,-0.109375 -0.09375,-0.109375 -0.125,-0.109375 -0.09375,0 -0.109375,0.046875 -0.140625,0.1875 -0.171875,0.640625 -0.34375,1.234375 -0.75,1.234375 -0.28125,0 -0.296875,-0.265625 -0.296875,-0.453125 0,-0.21875 0.015625,-0.3125 0.125,-0.75 C 3.890625,-1.71875 3.90625,-1.828125 4,-2.203125 L 4.359375,-3.59375 c 0.0625,-0.28125 0.0625,-0.296875 0.0625,-0.34375 0,-0.171875 -0.109375,-0.265625 -0.28125,-0.265625 -0.25,0 -0.390625,0.21875 -0.421875,0.4375 z M 3.078125,-1.1875 C 3.015625,-1 3.015625,-0.984375 2.875,-0.8125 2.4375,-0.265625 2.03125,-0.109375 1.75,-0.109375 c -0.5,0 -0.640625,-0.546875 -0.640625,-0.9375 0,-0.5 0.3125,-1.71875 0.546875,-2.1875 0.3125,-0.578125 0.75,-0.953125 1.15625,-0.953125 0.640625,0 0.78125,0.8125 0.78125,0.875 0,0.0625 -0.015625,0.125 -0.03125,0.171875 z m 0,0"
               id="id-c5eb0540-5330-4d2c-836a-8ec51693576e" />
          </g>
        </g>
        <path
           style="fill:none;stroke:#000000;stroke-width:0.398;stroke-linecap:butt;stroke-linejoin:miter;stroke-miterlimit:10;stroke-opacity:1"
           d="M -0.0010625,-0.00115625 H 5.264563"
           transform="matrix(1,0,0,-1,148.712,136.159)"
           id="id-3ab067dc-4e58-4d06-b15c-7a08bf1098d8" />
      </g>
    </g>
    <g
       transform="matrix(0.705556,0,0,0.705556,290.55738,129.78155)"
       ns1:version="1.6.0"
       ns1:texconverter="pdflatex"
       ns1:pdfconverter="inkscape"
       ns1:text="$\\underline{b}_\\parallel$"
       ns1:preamble="C:\Users\rag\AppData\Roaming\inkscape\extensions\textext\default_packages.tex"
       ns1:scale="2.0"
       ns1:alignment="middle center"
       ns1:stroke-to-path="0"
       ns1:inkscapeversion="1.1.1"
       ns1:jacobian_sqrt="0.705556"
       id="g2825">
      <defs
         id="id-a7e1e3cc-74d9-434b-9f83-992312083c8c">
        <g
           id="id-0bf1a8a7-241a-4e34-9ad7-772ec3b066c3">
          <symbol
             overflow="visible"
             id="id-5fe6e685-940b-4a02-96c0-9d47fd8746a6">
            <path
               style="stroke:none;stroke-width:0"
               d=""
               id="id-903e2bde-f8d0-499b-a985-fa4935b5d8e0" />
          </symbol>
          <symbol
             overflow="visible"
             id="id-3cc9c8c0-3dec-4e9f-b9aa-f3892a5226a1">
            <path
               style="stroke:none;stroke-width:0"
               d="m 2.375,-6.8125 c 0,0 0,-0.109375 -0.125,-0.109375 -0.21875,0 -0.953125,0.078125 -1.21875,0.109375 -0.078125,0 -0.1875,0.015625 -0.1875,0.1875 0,0.125 0.09375,0.125 0.25,0.125 0.46875,0 0.484375,0.0625 0.484375,0.171875 0,0.0625 -0.078125,0.40625 -0.125,0.609375 l -0.828125,3.25 c -0.109375,0.5 -0.15625,0.671875 -0.15625,1.015625 0,0.9375 0.53125,1.5625 1.265625,1.5625 1.171875,0 2.40625,-1.484375 2.40625,-2.921875 0,-0.90625 -0.53125,-1.59375 -1.328125,-1.59375 -0.453125,0 -0.875,0.296875 -1.171875,0.59375 z M 1.453125,-3.046875 C 1.5,-3.265625 1.5,-3.28125 1.59375,-3.390625 2.078125,-4.03125 2.53125,-4.1875 2.796875,-4.1875 c 0.359375,0 0.625,0.296875 0.625,0.9375 0,0.59375 -0.328125,1.734375 -0.515625,2.109375 -0.328125,0.671875 -0.78125,1.03125 -1.171875,1.03125 -0.34375,0 -0.671875,-0.265625 -0.671875,-1 0,-0.203125 0,-0.390625 0.15625,-1.015625 z m 0,0"
               id="id-e8494125-d47c-444f-9b38-b563c422b7c2" />
          </symbol>
          <symbol
             overflow="visible"
             id="id-551837ff-2604-4017-af16-badd9fad671b">
            <path
               style="stroke:none;stroke-width:0"
               d=""
               id="id-707d77e4-7174-4317-87fd-f0b33478aabd" />
          </symbol>
          <symbol
             overflow="visible"
             id="id-7ef9c8cd-ff10-4140-a465-f0f1a745b1ce">
            <path
               style="stroke:none;stroke-width:0"
               d="m 1.4375,-4.96875 c 0,-0.09375 0,-0.25 -0.171875,-0.25 -0.171875,0 -0.171875,0.171875 -0.171875,0.296875 V 1.4375 c 0,0.125 0,0.296875 0.171875,0.296875 0.171875,0 0.171875,-0.15625 0.171875,-0.265625 z m 1.53125,0.046875 c 0,-0.125 0,-0.296875 -0.171875,-0.296875 -0.15625,0 -0.15625,0.15625 -0.15625,0.25 v 6.4375 c 0,0.109375 0,0.265625 0.15625,0.265625 0.171875,0 0.171875,-0.171875 0.171875,-0.296875 z m 0,0"
               id="id-92de3da1-307a-4ed2-a339-39a26f9f1764" />
          </symbol>
        </g>
      </defs>
      <g
         id="id-97bd7531-7b26-4c6b-8ee6-562b128d59fa"
         transform="translate(-149.50649,-134.6047)">
        <g
           style="fill:#000000;fill-opacity:1"
           id="id-95b2a4f9-058a-4269-8c6f-dbcce02f43f1">
          <g
             transform="translate(148.712,134.765)"
             id="g2816">
            <path
               style="stroke:none;stroke-width:0"
               d="m 2.375,-6.8125 c 0,0 0,-0.109375 -0.125,-0.109375 -0.21875,0 -0.953125,0.078125 -1.21875,0.109375 -0.078125,0 -0.1875,0.015625 -0.1875,0.1875 0,0.125 0.09375,0.125 0.25,0.125 0.46875,0 0.484375,0.0625 0.484375,0.171875 0,0.0625 -0.078125,0.40625 -0.125,0.609375 l -0.828125,3.25 c -0.109375,0.5 -0.15625,0.671875 -0.15625,1.015625 0,0.9375 0.53125,1.5625 1.265625,1.5625 1.171875,0 2.40625,-1.484375 2.40625,-2.921875 0,-0.90625 -0.53125,-1.59375 -1.328125,-1.59375 -0.453125,0 -0.875,0.296875 -1.171875,0.59375 z M 1.453125,-3.046875 C 1.5,-3.265625 1.5,-3.28125 1.59375,-3.390625 2.078125,-4.03125 2.53125,-4.1875 2.796875,-4.1875 c 0.359375,0 0.625,0.296875 0.625,0.9375 0,0.59375 -0.328125,1.734375 -0.515625,2.109375 -0.328125,0.671875 -0.78125,1.03125 -1.171875,1.03125 -0.34375,0 -0.671875,-0.265625 -0.671875,-1 0,-0.203125 0,-0.390625 0.15625,-1.015625 z m 0,0"
               id="id-0e2b1d36-55a3-4712-9a18-b2dfbde2d9e8" />
          </g>
        </g>
        <path
           style="fill:none;stroke:#000000;stroke-width:0.398;stroke-linecap:butt;stroke-linejoin:miter;stroke-miterlimit:10;stroke-opacity:1"
           d="M -0.0010625,-0.00115625 H 4.276281"
           transform="matrix(1,0,0,-1,148.712,136.159)"
           id="id-ca535fd1-295e-434e-be26-57cf8e8ab5fe" />
        <g
           style="fill:#000000;fill-opacity:1"
           id="id-818cd9dd-4de9-4012-a0c9-de72db4d67bf">
          <g
             transform="translate(152.988,137.255)"
             id="g2821">
            <path
               style="stroke:none;stroke-width:0"
               d="m 1.4375,-4.96875 c 0,-0.09375 0,-0.25 -0.171875,-0.25 -0.171875,0 -0.171875,0.171875 -0.171875,0.296875 V 1.4375 c 0,0.125 0,0.296875 0.171875,0.296875 0.171875,0 0.171875,-0.15625 0.171875,-0.265625 z m 1.53125,0.046875 c 0,-0.125 0,-0.296875 -0.171875,-0.296875 -0.15625,0 -0.15625,0.15625 -0.15625,0.25 v 6.4375 c 0,0.109375 0,0.265625 0.15625,0.265625 0.171875,0 0.171875,-0.171875 0.171875,-0.296875 z m 0,0"
               id="id-3624a27c-20a3-4717-9245-1a53be09af6d" />
          </g>
        </g>
      </g>
    </g>
    <g
       transform="matrix(0.705556,0,0,0.705556,344.83631,153.63932)"
       ns1:version="1.6.0"
       ns1:texconverter="pdflatex"
       ns1:pdfconverter="inkscape"
       ns1:text="$\\underline{b}_\\bot$"
       ns1:preamble="C:\Users\rag\AppData\Roaming\inkscape\extensions\textext\default_packages.tex"
       ns1:scale="2.0"
       ns1:alignment="middle center"
       ns1:stroke-to-path="0"
       ns1:inkscapeversion="1.1.1"
       ns1:jacobian_sqrt="0.705556"
       id="g3044">
      <defs
         id="id-f8e2f52a-b6fb-4986-85a4-915f0d22332c">
        <g
           id="id-ebc0c380-d411-4099-9f0c-123fc0816d6b">
          <symbol
             overflow="visible"
             id="id-8b0562a1-4483-45ec-9137-4e4584cc97d7">
            <path
               style="stroke:none;stroke-width:0"
               d=""
               id="id-94bf21f8-1edc-4bb9-b96d-d259b84ba25a" />
          </symbol>
          <symbol
             overflow="visible"
             id="id-2933f86c-832a-4ab5-8007-b3d826a8ca82">
            <path
               style="stroke:none;stroke-width:0"
               d="m 2.375,-6.8125 c 0,0 0,-0.109375 -0.125,-0.109375 -0.21875,0 -0.953125,0.078125 -1.21875,0.109375 -0.078125,0 -0.1875,0.015625 -0.1875,0.1875 0,0.125 0.09375,0.125 0.25,0.125 0.46875,0 0.484375,0.0625 0.484375,0.171875 0,0.0625 -0.078125,0.40625 -0.125,0.609375 l -0.828125,3.25 c -0.109375,0.5 -0.15625,0.671875 -0.15625,1.015625 0,0.9375 0.53125,1.5625 1.265625,1.5625 1.171875,0 2.40625,-1.484375 2.40625,-2.921875 0,-0.90625 -0.53125,-1.59375 -1.328125,-1.59375 -0.453125,0 -0.875,0.296875 -1.171875,0.59375 z M 1.453125,-3.046875 C 1.5,-3.265625 1.5,-3.28125 1.59375,-3.390625 2.078125,-4.03125 2.53125,-4.1875 2.796875,-4.1875 c 0.359375,0 0.625,0.296875 0.625,0.9375 0,0.59375 -0.328125,1.734375 -0.515625,2.109375 -0.328125,0.671875 -0.78125,1.03125 -1.171875,1.03125 -0.34375,0 -0.671875,-0.265625 -0.671875,-1 0,-0.203125 0,-0.390625 0.15625,-1.015625 z m 0,0"
               id="id-aa60e970-5663-443f-8166-8214af6835ae" />
          </symbol>
          <symbol
             overflow="visible"
             id="id-bc0ca154-a6a5-4d3b-b7e3-b8670fb3c1da">
            <path
               style="stroke:none;stroke-width:0"
               d=""
               id="id-f65ad7e2-b62a-4589-8111-d8369af287a8" />
          </symbol>
          <symbol
             overflow="visible"
             id="id-9f9fca22-dcb5-42cb-acf3-81122380de63">
            <path
               style="stroke:none;stroke-width:0"
               d="m 3.28125,-4.5625 c 0,-0.109375 0,-0.28125 -0.171875,-0.28125 -0.171875,0 -0.171875,0.171875 -0.171875,0.28125 v 4.21875 h -2.125 c -0.109375,0 -0.28125,0 -0.28125,0.171875 C 0.53125,0 0.703125,0 0.8125,0 H 5.40625 C 5.515625,0 5.6875,0 5.6875,-0.171875 5.6875,-0.34375 5.53125,-0.34375 5.40625,-0.34375 h -2.125 z m 0,0"
               id="id-66168c65-644c-4634-859f-e56616f5919a" />
          </symbol>
        </g>
      </defs>
      <g
         id="id-6647ffd3-dbae-4e88-a8ae-0db603bbcb9a"
         transform="translate(-148.711,-127.843)">
        <g
           style="fill:#000000;fill-opacity:1"
           id="id-89e2fc7a-f551-499c-b078-420d8a0af2f9">
          <g
             transform="translate(148.712,134.765)"
             id="g3035">
            <path
               style="stroke:none;stroke-width:0"
               d="m 2.375,-6.8125 c 0,0 0,-0.109375 -0.125,-0.109375 -0.21875,0 -0.953125,0.078125 -1.21875,0.109375 -0.078125,0 -0.1875,0.015625 -0.1875,0.1875 0,0.125 0.09375,0.125 0.25,0.125 0.46875,0 0.484375,0.0625 0.484375,0.171875 0,0.0625 -0.078125,0.40625 -0.125,0.609375 l -0.828125,3.25 c -0.109375,0.5 -0.15625,0.671875 -0.15625,1.015625 0,0.9375 0.53125,1.5625 1.265625,1.5625 1.171875,0 2.40625,-1.484375 2.40625,-2.921875 0,-0.90625 -0.53125,-1.59375 -1.328125,-1.59375 -0.453125,0 -0.875,0.296875 -1.171875,0.59375 z M 1.453125,-3.046875 C 1.5,-3.265625 1.5,-3.28125 1.59375,-3.390625 2.078125,-4.03125 2.53125,-4.1875 2.796875,-4.1875 c 0.359375,0 0.625,0.296875 0.625,0.9375 0,0.59375 -0.328125,1.734375 -0.515625,2.109375 -0.328125,0.671875 -0.78125,1.03125 -1.171875,1.03125 -0.34375,0 -0.671875,-0.265625 -0.671875,-1 0,-0.203125 0,-0.390625 0.15625,-1.015625 z m 0,0"
               id="id-a7b4a192-4b3d-4f17-876c-65b1eb32b9c9" />
          </g>
        </g>
        <path
           style="fill:none;stroke:#000000;stroke-width:0.398;stroke-linecap:butt;stroke-linejoin:miter;stroke-miterlimit:10;stroke-opacity:1"
           d="M -0.0010625,-0.00115625 H 4.276281"
           transform="matrix(1,0,0,-1,148.712,136.159)"
           id="id-c19a13c5-c7af-4eb4-87cd-f137e8b17541" />
        <g
           style="fill:#000000;fill-opacity:1"
           id="id-15d42672-e16c-4934-9248-b3bdf54a6064">
          <g
             transform="translate(152.988,137.255)"
             id="g3040">
            <path
               style="stroke:none;stroke-width:0"
               d="m 3.28125,-4.5625 c 0,-0.109375 0,-0.28125 -0.171875,-0.28125 -0.171875,0 -0.171875,0.171875 -0.171875,0.28125 v 4.21875 h -2.125 c -0.109375,0 -0.28125,0 -0.28125,0.171875 C 0.53125,0 0.703125,0 0.8125,0 H 5.40625 C 5.515625,0 5.6875,0 5.6875,-0.171875 5.6875,-0.34375 5.53125,-0.34375 5.40625,-0.34375 h -2.125 z m 0,0"
               id="id-ad067ed9-ba52-47e2-972d-c98527110017" />
          </g>
        </g>
      </g>
    </g>
    <path
       style="fill:none;stroke:#000000;stroke-width:0.311703px;stroke-linecap:butt;stroke-linejoin:miter;stroke-opacity:1;marker-end:url(#Arrow1Lend)"
       d="m 297.34622,152.77335 h 57.1902"
       id="path3347" />
  </g>
</svg>
